<?xml version="1.0" encoding="utf-8"?>
<!-- Generator: Adobe Illustrator 28.1.0, SVG Export Plug-In . SVG Version: 6.00 Build 0)  -->
<svg version="1.1" id="Layer_1" xmlns="http://www.w3.org/2000/svg" xmlns:xlink="http://www.w3.org/1999/xlink" x="0px" y="0px"
	 viewBox="0 0 470.3 470.3" style="enable-background:new 0 0 470.3 470.3;" xml:space="preserve">
<style type="text/css">
	.st0{fill:#FFFFFF;}
	.st1{fill:#62B5C0;}
	.st2{display:none;fill:#62B5C0;}
</style>
<g id="Layer_2_00000173162396068035558370000015319894748506288315_">
	<circle class="st0" cx="235.1" cy="235.1" r="235.1"/>
</g>
<g id="Layer_1_00000018201220656518950700000007384976793241247661_">
	<path class="st1" d="M235.3,157.6c25.3,0,50.7,0.3,75.9-0.2c9.2-0.2,16.5,6.9,16.4,16.6c-0.3,35.5-0.3,70.9-0.4,106.4
		c-0.1,10.7-9.7,19.6-20.5,19.5c-19.7-0.3-39.3-0.2-59-0.2c-28.6,0-57.2,0-85.8,0c-9.4,0-18.7-9.1-18.7-18.5
		c-0.1-35.9,0.1-71.9-0.3-107.9c-0.1-7.9,7.1-16.1,16-15.9C184.4,158,209.8,157.7,235.3,157.6L235.3,157.6L235.3,157.6z M280,231.1
		c12.8,0.2,22.8-9.1,23.1-21.6c0.3-12.7-9.8-23.3-22.6-23.5c-12.4-0.2-22.6,9.8-22.9,22.4C257.1,220.9,267.1,231,280,231.1
		L280,231.1z M212.9,209.2c0.1-12.9-9.6-22.9-22.4-23.1c-12.5-0.2-22.7,9.9-22.8,22.3c-0.1,12.8,9.6,22.7,22.2,22.7
		C202.9,231.2,212.9,221.7,212.9,209.2L212.9,209.2z M279.9,265.5c0.1-3-2.1-4.9-5.2-4.7c-1.7,0.2-3.4,0.6-5.1,0.6
		c-24.7-0.4-49.3,0.9-74-0.6c-2.9-0.2-4.9,1.9-4.8,4.8c0.2,2.9,2.4,4.9,5.2,4.2c2.8-0.7,5.5-0.5,8.4-0.5c18.1,0,36.2-0.1,54.3,0
		c5.5,0,11-0.5,16.4,0.6C277.8,270.4,279.8,268.3,279.9,265.5L279.9,265.5z"/>
	<path class="st1" d="M157.8,147.2c8.5-15.4,20-26.2,34.4-33.6c1.8,0.8,2.1,2.1,2.9,3.1c5.4,7,12.2,11.1,21.2,11.1
		c11,0,22-0.3,33,0.1c11.7,0.5,21.1-3,27.3-13.3c10.2,1.1,32.1,21.3,35.3,32.6L157.8,147.2L157.8,147.2z"/>
	<path class="st1" d="M235.6,77.8c6.1,0,12.2-0.1,18.4,0c10.2,0.2,17.6,7.6,18,18.3c0.4,11.8-6.1,20.6-16.7,21.1
		c-13.3,0.5-26.7,0.5-39.9,0.1c-9.9-0.3-16.9-8.3-17-18.1c-0.3-13.7,8.1-22.1,21.1-21.3C224.9,78.1,230.2,77.8,235.6,77.8
		L235.6,77.8L235.6,77.8z"/>
	<path class="st1" d="M132.7,226.4c0,11.5,0,23,0,34.4c0,6.6-3.7,10.1-10.7,10.1c-7.2,0.1-12.5-3.9-12.6-10
		c-0.2-23.3-0.2-46.6-0.1-70c0-6.2,4.2-8.6,13.2-8.6c7,0.1,10.1,2.7,10.1,8.7C132.8,203,132.7,214.6,132.7,226.4L132.7,226.4z"/>
	<path class="st1" d="M337.5,226.4c0-11.2,0-22.2,0-33.4c0-7,2.6-9.9,9.6-10.7c2.7-0.3,5.4,0.1,8,0.8c3.9,1,5.8,3.8,5.8,8.3
		c0.2,9.1,0.2,18.1,0.2,27.2c0,13.4-0.1,26.9,0,40.3c0,4.7-1.3,8.6-5.7,10.6c-4.8,2-9.8,2.1-14.4-0.8c-2.5-1.6-3.4-4.2-3.4-7.3
		C337.6,249.6,337.5,238,337.5,226.4L337.5,226.4L337.5,226.4z"/>
	<path class="st1" d="M355.6,173.4c-2.3,1.2-4,0.8-6.5,0.5v-60.5c-5.7-2.4-11-4.7-12.8-10.7c-1-3.3-0.9-6.5,0.3-9.7
		c2.3-6.6,9-10.5,17-10.1c6.9,0.4,12.6,5.2,13.9,11.9c1.8,8.5-0.8,12.3-11.8,18.2V173.4L355.6,173.4z"/>
	<path class="st1" d="M121.2,173.6c-2.3,0.4-4.6,0.4-6.5,0v-60.7c-5.5-2.2-10.3-4.5-11.9-10.4c-0.9-3.4-0.8-6.5,0.5-9.7
		c2.7-6.7,9.9-10.7,17.2-9.7c7.5,1.1,13,6.3,13.6,12.8c0.8,8.6-2.3,13.1-12.8,16.7C121.2,112.6,121.2,173.6,121.2,173.6z"/>
	<path class="st1" d="M99.6,259.5c-11.1-7.7-15.7-18.2-16.4-30.3c-1-15.3,2.7-28.9,16.4-39.3V259.5L99.6,259.5z"/>
	<path class="st1" d="M371.9,190.5c12.2,10,15.9,23.4,15.2,38.6c-0.7,12.7-8.3,26.8-16.4,29.6v-67.9
		C371.1,190.7,371.5,190.6,371.9,190.5L371.9,190.5z"/>
	<path class="st1" d="M282.6,318.1c31.6,0,49.3,5.8,52.7,12.1c3.1,5.7,3.6,1.3,2.6,29.5c-1.1,29.2-54.7,41.9-105.9,41.9
		c-54.6,0-103.4-20.9-104.2-41.9c-0.8-21,0-21,2-28.4c2.1-7.4,11.7-13.5,51.6-13.5"/>
	<path class="st2" d="M285.7,318c44.3,3.4,51.6,12.7,54.2,15.5c1.3,2.3,3.2,9,0,26.4c-3.2,17.4-25.2,38.1-104.4,38.1
		c-69.6,0-103.5-24.7-104.7-38.1c-1.2-13.5-0.4-24.3,0-26.4c1.9-4.6,12-13.6,54.1-15.9"/>
	<path class="st0" d="M277.5,327c28.3,0,44.2,4.4,47.3,9.2c2.8,4.3,3.3,1,2.3,22.4c-1,22.2-49.1,31.8-95,31.8
		c-49,0-92.8-15.9-93.5-31.8c-0.8-15.9,0-15.9,1.8-21.6c1.8-5.6,10.5-10.3,46.3-10.3"/>
	<path class="st1" d="M272.6,334.2c25.2,0,39.4,3.4,42.1,7.1c2.5,3.3,2.9,0.8,2.1,17.3c-0.9,17.1-43.7,24.5-84.6,24.5
		c-43.6,0-82.7-12.3-83.3-24.5s0-12.3,1.6-16.6c1.6-4.4,9.3-7.9,41.2-7.9"/>
</g>
</svg>
