<?xml version="1.0" encoding="utf-8"?>
<!-- Generator: Adobe Illustrator 28.1.0, SVG Export Plug-In . SVG Version: 6.00 Build 0)  -->
<svg version="1.1" id="Layer_1" xmlns="http://www.w3.org/2000/svg" xmlns:xlink="http://www.w3.org/1999/xlink" x="0px" y="0px"
	 viewBox="0 0 4000 1000" style="enable-background:new 0 0 4000 1000;" xml:space="preserve">
<style type="text/css">
	.st0{fill:none;stroke:#F18389;stroke-width:2;}
	.st1{fill:#E30613;}
	.st2{fill:#FFFFFF;}
</style>
<g>
	<path vector-effect="non-scaling-stroke" class="st0" d="M4000,341.3h-953.4"/>
	<path vector-effect="non-scaling-stroke" class="st0" d="M4000,658.7h-953.4"/>
	<path vector-effect="non-scaling-stroke" class="st0" d="M316.2,507.5c-0.1,0.3-0.4,0.4-0.6,0.4c-0.2-0.1-0.3-0.2-0.4-0.4
		l-83.9-339.4c-0.1-0.2-0.3-0.4-0.5-0.4l-166.1,0c-0.3,0-0.5,0.2-0.5,0.5c0,0,0,0.1,0,0.1l178.3,647.8c0.1,0.2,0.3,0.4,0.5,0.4h129
		c0.2,0,0.4-0.1,0.5-0.4l103.9-316.9c0.1-0.3,0.4-0.4,0.7-0.3c0.1,0.1,0.3,0.2,0.3,0.3l103.8,316.9c0.1,0.2,0.3,0.4,0.5,0.4h129.9
		c0.2,0,0.4-0.2,0.5-0.4l177.4-647.8c0.1-0.3-0.1-0.6-0.4-0.6c0,0-0.1,0-0.1,0H722.8c-0.2,0-0.4,0.2-0.5,0.4l-83.9,339.4
		c-0.1,0.3-0.3,0.5-0.6,0.4c-0.2,0-0.3-0.2-0.4-0.4L533.5,168c-0.1-0.2-0.3-0.4-0.5-0.4H420.5c-0.2,0-0.4,0.1-0.5,0.4L316.2,507.5"
		/>
	<path vector-effect="non-scaling-stroke" class="st0" d="M1387.4,395.8c-0.2-0.4-0.3-0.8-0.3-1.2c0-67.9,0-143.2,0-225.7
		c0-0.6-0.3-0.9-0.9-0.9l-156.2,0c-0.5,0-0.8,0.3-0.8,0.8v646.8c0,0.6,0.3,0.8,0.8,0.8l156.2,0c0.6,0,0.8-0.3,0.8-0.8
		c0-66.1,0-132.5,0-199.1c0-2,0.7-3.8,2-5.3c17.3-19.9,34.6-39.8,51.8-59.6c0.2-0.2,0.5-0.2,0.8,0c0,0,0.1,0.1,0.1,0.1l148.3,264
		c0.3,0.5,0.7,0.7,1.3,0.7l184.9,0c0.2,0,0.4-0.2,0.4-0.4c0-0.1,0-0.2-0.1-0.2l-227.8-384.8c-0.3-0.5-0.2-1.1,0.1-1.5l220.3-261.1
		c0.3-0.4,0.2-0.6-0.3-0.6h-194.2c-0.5,0-0.9,0.2-1.2,0.6l-185.7,227.2C1387.7,396,1387.5,396,1387.4,395.8
		C1387.4,395.9,1387.4,395.8,1387.4,395.8"/>
	<path vector-effect="non-scaling-stroke" class="st0" d="M2818.3,451.8c-17.6-172-152.9-296.4-325.2-303.6
		c-73.1-3.1-143.9,13.8-204.5,52c-109.9,69.2-164.2,192.4-154.2,320.2c11.7,151,114.8,273.7,264,305.4
		c105.6,22.4,219.2-0.8,302.8-71C2789.8,680,2830.1,567,2818.3,451.8"/>
	<path vector-effect="non-scaling-stroke" class="st0" d="M2532.6,318.2c-15.1-6.3-30.8-9.9-47.1-10.8
		c-86.8-4.6-149.8,63.4-163.3,145.4c-6.1,37.3-3.3,73.7,8.5,109.1c19.7,59.3,68.7,106.1,132.3,111.8c40,3.5,78.7-8.8,109.3-35
		c51.2-43.9,69.4-116.7,59.6-182C2622.8,396.5,2589.1,341.9,2532.6,318.2"/>
</g>
<path class="st1" d="M953.8,976.1c0,0.3-0.3,0.6-0.6,0.6H0.6c-0.3,0-0.6-0.3-0.6-0.6V23.9c0-0.3,0.3-0.6,0.6-0.6c0,0,0,0,0,0h952.7
	c0.3,0,0.6,0.3,0.6,0.6V976.1z M316.2,507.5c-0.1,0.3-0.4,0.4-0.6,0.4c-0.2-0.1-0.3-0.2-0.4-0.4l-83.9-339.4
	c-0.1-0.2-0.3-0.4-0.5-0.4l-166.1,0c-0.3,0-0.5,0.2-0.5,0.5c0,0,0,0.1,0,0.1l178.3,647.8c0.1,0.2,0.3,0.4,0.5,0.4h129
	c0.2,0,0.4-0.1,0.5-0.4l103.9-316.9c0.1-0.3,0.4-0.4,0.7-0.3c0.1,0.1,0.3,0.2,0.3,0.3l103.8,316.9c0.1,0.2,0.3,0.4,0.5,0.4h129.9
	c0.2,0,0.4-0.2,0.5-0.4l177.4-647.8c0.1-0.3-0.1-0.6-0.4-0.6c0,0-0.1,0-0.1,0H722.8c-0.2,0-0.4,0.2-0.5,0.4l-83.9,339.4
	c-0.1,0.3-0.3,0.5-0.6,0.4c-0.2,0-0.3-0.2-0.4-0.4L533.5,168c-0.1-0.2-0.3-0.4-0.5-0.4H420.5c-0.2,0-0.4,0.1-0.5,0.4L316.2,507.5z"
	/>
<path class="st1" d="M1953.5,976.2c0,0.3-0.2,0.5-0.5,0.5h-952.3c-0.3,0-0.5-0.2-0.5-0.5v0V23.8c0-0.3,0.2-0.5,0.5-0.5l0,0H1953
	c0.3,0,0.5,0.2,0.5,0.5V976.2z M1387.4,395.8c-0.2-0.4-0.3-0.8-0.3-1.2c0-67.9,0-143.2,0-225.7c0-0.6-0.3-0.9-0.9-0.9l-156.2,0
	c-0.5,0-0.8,0.3-0.8,0.8v646.8c0,0.6,0.3,0.8,0.8,0.8l156.2,0c0.6,0,0.8-0.3,0.8-0.8c0-66.1,0-132.5,0-199.1c0-2,0.7-3.8,2-5.3
	c17.3-19.9,34.6-39.8,51.8-59.6c0.2-0.2,0.5-0.2,0.8,0c0,0,0.1,0.1,0.1,0.1l148.3,264c0.3,0.5,0.7,0.7,1.3,0.7l184.9,0
	c0.2,0,0.4-0.2,0.4-0.4c0-0.1,0-0.2-0.1-0.2l-227.8-384.8c-0.3-0.5-0.2-1.1,0.1-1.5l220.3-261.1c0.3-0.4,0.2-0.6-0.3-0.6h-194.2
	c-0.5,0-0.9,0.2-1.2,0.6l-185.7,227.2C1387.7,396,1387.5,396,1387.4,395.8C1387.4,395.9,1387.4,395.8,1387.4,395.8z"/>
<path class="st1" d="M2953.6,976.2c0,0.3-0.2,0.5-0.5,0.5h-952.8c-0.3,0-0.5-0.2-0.5-0.5V23.8c0-0.3,0.2-0.5,0.5-0.5h952.8
	c0.3,0,0.5,0.2,0.5,0.5V976.2z M2818.3,451.8c-17.6-172-152.9-296.4-325.2-303.6c-73.1-3.1-143.9,13.8-204.5,52
	c-109.9,69.2-164.2,192.4-154.2,320.2c11.7,151,114.8,273.7,264,305.4c105.6,22.4,219.2-0.8,302.8-71
	C2789.8,680,2830.1,567,2818.3,451.8z"/>
<path class="st1" d="M4000,341.3h-953.4l0-317.6c0-0.2,0.2-0.4,0.4-0.4l0,0h952.5c0.2,0,0.4,0.2,0.4,0.4L4000,341.3z"/>
<path class="st2" d="M2493,148.1c172.3,7.2,307.6,131.7,325.2,303.6C2830.1,567,2789.8,680,2701,754.7
	c-83.6,70.3-197.1,93.5-302.8,71c-149.2-31.7-252.2-154.4-264-305.4c-9.9-127.8,44.4-251.1,154.2-320.2
	C2349.1,162,2420,145.1,2493,148.1z M2532.6,318.2c-15.1-6.3-30.8-9.9-47.1-10.8c-86.8-4.6-149.8,63.4-163.3,145.4
	c-6.1,37.3-3.3,73.7,8.5,109.1c19.7,59.3,68.7,106.1,132.3,111.8c40,3.5,78.7-8.8,109.3-35c51.2-43.9,69.4-116.7,59.6-182
	C2622.8,396.5,2589.1,341.9,2532.6,318.2z"/>
<path class="st2" d="M316.2,507.5L420,168c0.1-0.2,0.3-0.4,0.5-0.4H533c0.2,0,0.4,0.1,0.5,0.4l103.8,339.5c0.1,0.3,0.4,0.4,0.6,0.4
	c0.2-0.1,0.3-0.2,0.4-0.4l83.9-339.4c0.1-0.2,0.3-0.4,0.5-0.4h166.2c0.3,0,0.5,0.2,0.5,0.5c0,0,0,0.1,0,0.1L712,816.1
	c-0.1,0.2-0.3,0.4-0.5,0.4H581.6c-0.2,0-0.4-0.1-0.5-0.4L477.3,499.2c-0.1-0.3-0.4-0.4-0.7-0.3c-0.1,0.1-0.3,0.2-0.3,0.3
	L372.4,816.2c-0.1,0.2-0.3,0.4-0.5,0.4H243c-0.2,0-0.4-0.2-0.5-0.4L64.1,168.3c-0.1-0.3,0.1-0.6,0.4-0.6c0,0,0.1,0,0.1,0l166.1,0
	c0.2,0,0.4,0.2,0.5,0.4l83.9,339.4c0.1,0.3,0.3,0.5,0.6,0.4C316,507.8,316.2,507.7,316.2,507.5z"/>
<path class="st2" d="M1387.4,395.8c0.1,0.1,0.2,0.2,0.3,0.1c0,0,0,0,0.1-0.1l185.7-227.2c0.3-0.4,0.7-0.6,1.2-0.6h194.2
	c0.5,0,0.6,0.2,0.3,0.6l-220.3,261.1c-0.4,0.4-0.4,1-0.1,1.5l227.8,384.8c0.1,0.2,0.1,0.4-0.1,0.5c-0.1,0-0.1,0.1-0.2,0.1l-184.9,0
	c-0.6,0-1-0.2-1.3-0.7l-148.3-264c-0.2-0.3-0.5-0.4-0.7-0.2c-0.1,0-0.1,0.1-0.1,0.1c-17.2,19.8-34.5,39.7-51.8,59.6
	c-1.3,1.5-2,3.3-2,5.3c0,66.6,0,133,0,199.1c0,0.6-0.3,0.8-0.8,0.8l-156.2,0c-0.5,0-0.8-0.3-0.8-0.8V168.9c0-0.5,0.3-0.8,0.8-0.8
	l156.2,0c0.6,0,0.9,0.3,0.9,0.9c0,82.5,0,157.8,0,225.7C1387,395.1,1387.1,395.5,1387.4,395.8z"/>
<path class="st1" d="M2532.6,318.2c56.6,23.7,90.2,78.3,99.3,138.6c9.8,65.3-8.4,138.1-59.6,182c-30.6,26.2-69.2,38.5-109.3,35
	c-63.6-5.6-112.6-52.4-132.3-111.8c-11.8-35.5-14.6-71.8-8.5-109.1c13.5-82,76.5-150,163.3-145.4
	C2501.8,308.3,2517.5,311.9,2532.6,318.2z"/>
<path class="st2" d="M3046.6,341.3H4000l0,317.3h-953.4V341.3z"/>
<path class="st1" d="M3046.6,658.7H4000l-0.1,317.3c0,0.5-0.2,0.7-0.7,0.7h-951.7c-0.5,0-0.7-0.3-0.7-0.8L3046.6,658.7z"/>
</svg>
