<?xml version="1.0" encoding="UTF-8"?>
<svg xmlns="http://www.w3.org/2000/svg" viewBox="0 0 186.26 33.28">
  <defs>
    <style>
      .cls-1, .cls-2 {
        fill: #fff;
      }

      .cls-2 {
        fill-rule: evenodd;
      }
    </style>
  </defs>
  <g id="Layer_2">
    <path class="cls-2" d="M185.93,1.16h-2.53s-4.89,14.53-6.9,20.31c-2.27,6.54-4.7,11.81-14.07,11.81-5.58,0-9.59-2.02-11.17-5.88l-1.92,5.06h-4.33l-6.3-19.18-6.59,19.18h-4.33L114.99,1.16h-2.53l-.32-1.16h14.16l.32,1.16h-2.87l8.99,22.35,4.76-13.93-2.77-8.42h-2.54l-.33-1.16h13.94l.32,1.16h-2.87l7.27,22.45c-.03-1.62.22-2.88,1.1-5.38l6.04-17.07h-2.87l.33-1.16h13.88l-.33,1.16h-2.54s-4.11,11.71-6.46,18.83c-.53,1.61-1.35,3.92-1.35,6,0,3.11,2.04,4.92,5.66,4.92,3.11,0,7.24-1.3,9.68-8.36,1.94-5.59,7.31-21.39,7.31-21.39h-2.86l.32-1.16h7.83l-.33,1.16Z"/>
  </g>
  <g id="uuid-7f147673-8953-4dbc-8c65-25981123f476">
    <g>
      <path class="cls-1" d="M1.48,8.19h.11L6.42,3.82h1.86v.04l-5.5,4.92,5.9,4.94v.04h-1.91L1.61,9.37h-.13v4.41H0V.66h1.48v7.53Z"/>
      <path class="cls-1" d="M9.83,13.77V3.82h1.48v2.89h.04c.36-2.03,1.37-2.89,3.02-2.89h.69v1.61h-.81c-1.99,0-2.93.81-2.93,2.89v5.46h-1.48Z"/>
      <path class="cls-1" d="M16.23,2.11V.66h1.8v1.45h-1.8ZM16.4,13.77V3.82h1.48v9.95h-1.48Z"/>
      <path class="cls-1" d="M24.68,4.96c-2.08,0-3.53,1.31-3.53,3.85,0,2.4,1.41,3.83,3.6,3.83s2.87-1.26,3.3-2.87l1.41.32c-.49,2.46-1.94,3.92-4.66,3.92-3.13,0-5.14-1.94-5.14-5.22s2.16-5.2,5.05-5.2,4.26,1.43,4.71,3.85l-1.41.28c-.39-1.73-1.37-2.76-3.32-2.76h0Z"/>
      <path class="cls-1" d="M32.62,13.77h-1.48V.66h1.48v5.84h.02c.43-1.94,1.75-2.91,3.55-2.91,2.74,0,3.62,1.8,3.62,3.94v6.25h-1.48v-5.93c0-1.48-.62-2.91-2.65-2.91-1.91,0-3.06,1.07-3.06,2.91,0,0,0,5.93,0,5.93Z"/>
      <path class="cls-1" d="M43.5,13.77h-1.48V3.82h1.48v2.67h.02c.43-1.94,1.75-2.91,3.55-2.91,2.37,0,3.34,1.35,3.57,3.1h.02c.32-2.08,1.5-3.1,3.53-3.1,2.78,0,3.68,1.8,3.68,3.94v6.25h-1.48v-5.93c0-1.48-.62-2.91-2.65-2.91-1.91,0-3.06,1.07-3.06,2.91v5.93h-1.48v-5.93c0-1.48-.62-2.91-2.65-2.91-1.91,0-3.06,1.07-3.06,2.91,0,0,0,5.93,0,5.93Z"/>
      <path class="cls-1" d="M66.56,11.21h-.02c-.47,1.88-1.88,2.78-3.64,2.78-2.01,0-3.25-.92-3.25-2.78,0-1.65,1.13-2.93,3.46-2.93h3.45v-.66c0-1.75-.64-2.72-2.44-2.72-1.59,0-2.44.75-2.74,2.59l-1.41-.23c.34-2.4,1.75-3.64,4.19-3.64,2.67,0,3.85,1.41,3.85,3.96v6.2h-1.45v-2.57ZM66.56,10.11v-.64h-3.3c-1.39,0-2.16.56-2.16,1.61,0,.81.56,1.65,2.12,1.65,2.08,0,3.34-1.11,3.34-2.61Z"/>
      <path class="cls-1" d="M68.86,17.07l.21-1.41c.45.09.83.15,1.26.15,1.18,0,1.93-.3,2.74-2.16l-4.39-9.82h1.65l1.45,3.51c.53,1.31,1.41,3.32,2.08,4.88.62-1.59,1.41-3.53,1.93-4.84l1.37-3.55h1.59l-4.33,10.08c-1.01,2.33-2.21,3.3-4.11,3.3-.62,0-1.07-.07-1.45-.13Z"/>
      <path class="cls-1" d="M79.93,13.77V3.82h1.48v2.89h.04c.36-2.03,1.37-2.89,3.02-2.89h.69v1.61h-.81c-1.99,0-2.93.81-2.93,2.89v5.46h-1.48Z"/>
      <path class="cls-1" d="M43.15,23.03H.04v-1.31h43.1v-2.84h1.48v2.84h3.36v1.31h-3.36v5.61c0,1.24.47,1.86,1.67,1.86.56,0,1.01-.09,1.59-.26l.21,1.35c-.66.21-1.22.32-2.05.32-1.99,0-2.89-1.31-2.89-3.14v-5.74Z"/>
      <path class="cls-1" d="M49.4,20.02v-1.45h1.8v1.45s-1.8,0-1.8,0ZM49.57,31.68v-9.95h1.48v9.95h-1.48Z"/>
      <path class="cls-1" d="M54.9,31.68h-1.48v-9.95h1.48v2.67h.02c.43-1.94,1.75-2.91,3.55-2.91,2.74,0,3.62,1.8,3.62,3.94v6.25h-1.48v-5.93c0-1.48-.62-2.91-2.65-2.91-1.91,0-3.06,1.07-3.06,2.91,0,0,0,5.93,0,5.93Z"/>
      <path class="cls-1" d="M65.78,31.68h-1.48v-13.12h1.48v5.84h.02c.43-1.94,1.75-2.91,3.55-2.91,2.74,0,3.62,1.8,3.62,3.94v6.25h-1.48v-5.93c0-1.48-.62-2.91-2.65-2.91-1.91,0-3.06,1.07-3.06,2.91v5.93h0Z"/>
      <path class="cls-1" d="M74.6,26.67c0-3.25,2.05-5.18,5.01-5.18s5.01,1.92,5.01,5.18-1.88,5.24-5.01,5.24-5.01-2.01-5.01-5.24ZM76.08,26.65c0,2.33,1.24,3.89,3.51,3.89s3.55-1.56,3.55-3.89-1.35-3.79-3.53-3.79-3.53,1.45-3.53,3.79h0Z"/>
      <path class="cls-1" d="M88.52,21.73h3.21v1.31h-3.21v8.64h-1.48v-8.64h-1.88v-1.31h1.88v-.19c0-1.99,1.07-3.27,3.25-3.27.69,0,1.22.09,1.61.17l-.17,1.18c-.47-.11-.88-.15-1.31-.15-1.39,0-1.91.75-1.91,2.08v.19h0Z"/>
      <path class="cls-1" d="M92.37,26.74c0-3.3,2.08-5.24,5.01-5.24s4.56,1.86,4.56,4.62c0,.23,0,.64-.04,1.05h-8.02c.15,2.18,1.43,3.43,3.55,3.43,1.97,0,2.76-1.03,3.13-2.31l1.33.39c-.51,2.01-1.99,3.25-4.45,3.25-3.1,0-5.05-1.94-5.05-5.18h0ZM93.89,25.95h6.66c-.11-2.01-1.15-3.14-3.21-3.14-1.93,0-3.21,1.07-3.45,3.14Z"/>
      <path class="cls-1" d="M103.72,31.68v-9.95h1.48v2.89h.04c.36-2.03,1.37-2.89,3.02-2.89h.69v1.61h-.81c-1.99,0-2.93.81-2.93,2.89v5.46h-1.48Z"/>
    </g>
  </g>
</svg>