<?xml version="1.0" encoding="utf-8"?>
<!-- Generator: Adobe Illustrator 28.1.0, SVG Export Plug-In . SVG Version: 6.00 Build 0)  -->
<svg version="1.1" id="Layer_1" xmlns="http://www.w3.org/2000/svg" xmlns:xlink="http://www.w3.org/1999/xlink" x="0px" y="0px"
	 viewBox="0 0 4000 1000" style="enable-background:new 0 0 4000 1000;" xml:space="preserve">
<style type="text/css">
	.st0{fill:#E8171F;}
</style>
<g id="logo" transform="translate(-135 -136.239)">
	<path id="wordmark" d="M4135,506.8c0.3-21.7-17-39.6-38.7-39.9c-0.3,0-0.6,0-0.9,0c-22,0.1-39.8,17.9-39.8,39.9
		c-0.2,21.8,17.3,39.7,39.1,39.9c0.2,0,0.5,0,0.7,0c21.7,0.1,39.5-17.4,39.6-39.1C4135,507.3,4135,507,4135,506.8 M4128.4,506.7
		c0.3,18.2-14.1,33.2-32.3,33.5c-0.2,0-0.5,0-0.7,0c-18.2,0.1-33-14.7-33-32.8c0-0.2,0-0.5,0-0.7c-0.1-18.4,14.7-33.4,33-33.5
		C4113.8,473.3,4128.6,488.3,4128.4,506.7 M4113.7,528.5l-10.8-19.8c5.7-1.1,9.7-6.4,9.1-12.3c0-8.2-5.8-12.8-16-12.8h-15.8v44.9
		h7.4v-18.6h7.8l10.3,18.7L4113.7,528.5z M4095.7,503.3h-8.1v-13h7.9c6.4,0,9.3,1.9,9.3,6.2C4104.8,501.3,4102.1,503.3,4095.7,503.3
		 M4052.8,765.8c0-44.2-28-71.1-80.7-89.7l-25.5-9c-36.1-12.6-45.4-26.9-45.4-45.4c0-20.9,20.6-32.9,44.1-32.9
		c19.5-0.2,38,8.4,50.4,23.3l34.8-30.3c-20.8-25.5-52.3-39.9-85.2-39.1c-56.6,0-97,34.7-97,79.5c0,35.9,19.3,68.7,74,88.5l24.2,9
		c36.6,12.6,52.8,25.1,52.8,47.8s-24.9,37.7-55.3,37.7c-29-0.2-56.2-14.2-73.3-37.7l-36.7,31.9c26.5,32.9,66.6,52,108.8,51.8
		C4010.6,851.3,4052.9,813.6,4052.8,765.8 M3729,466.8h56.2v-48.1H3729V466.8z M3677,821.9l-108.6-124.7L3676,573.3l0.9-1
		l-36.3-31.5l-104.1,119.7l-103.2-118.7l-0.9-1l-36.3,31.5l108.5,124.8l-107.6,123.8l-0.9,1l36.3,31.5l104.1-119.7l103.2,118.7
		l0.9,1L3677,821.9z M3137.3,709.7h242.7c-1.2-106.5-62.2-166.8-145.9-166.8c-83.3,0.3-150.5,68.1-150.1,151.4c0,1,0,1.9,0,2.9
		c-1.7,83.4,64.5,152.5,147.9,154.2c1.9,0,3.8,0,5.7,0c45,0.8,88.3-16.7,120.2-48.4l-0.2-0.3l-36.6-31.8
		c-22.8,20.7-52.5,32.1-83.3,32.1C3184.9,803.4,3140.8,762.5,3137.3,709.7 M3139.7,664.8c8.9-43.4,47.1-74.7,91.5-74.7
		c45.4-3.3,85.3,29.6,90.9,74.7H3139.7z M3009.5,846.6h10.8V418.8h-54.4v307.5l-291.8-307.5h-10.8v427.8h54.4V539.1L3009.5,846.6z
		 M2591.4,765.9c0-44.2-28-71.1-80.7-89.7l-25.5-9c-36.1-12.6-45.4-26.9-45.4-45.4c0-20.9,20.6-32.9,44.1-32.9
		c19.5-0.2,38,8.4,50.4,23.3l34.8-30.3c-20.8-25.5-52.3-39.9-85.2-39.1c-56.6,0-97,34.7-97,79.5c0,35.9,19.3,68.7,74,88.5l24.2,9
		c36.7,12.6,52.8,25.1,52.8,47.8c0,22.7-24.9,37.7-55.3,37.7c-29-0.2-56.2-14.2-73.3-37.7l-36.7,31.9c26.5,32.9,66.6,52,108.8,51.8
		C2549.2,851.4,2591.5,813.7,2591.4,765.9 M2267.7,467h56.2v-48.1h-56.2V467z M2215.6,822l-108.5-124.8l107.6-123.8l0.9-1
		l-36.3-31.5l-104.1,119.7L1972,541.8l-0.9-1l-36.3,31.5l108.5,124.8l-107.6,123.8l-0.9,1l36.3,31.5l104.1-119.7l103.2,118.7l0.9,1
		L2215.6,822z M1675.9,709.7h242.7c-1.2-106.5-62.2-166.8-145.9-166.8c-83.3,0.4-150.5,68.2-150.1,151.4c0,0.9,0,1.9,0,2.8
		c-1.7,83.4,64.5,152.5,147.9,154.2c1.9,0,3.8,0,5.7,0c45,0.8,88.3-16.7,120.2-48.4l-0.3-0.3l-36.6-31.8
		c-22.8,20.7-52.5,32.1-83.3,32.1C1723.5,803.4,1679.4,762.5,1675.9,709.7 M1678.4,664.8c8.9-43.4,47.1-74.7,91.5-74.7
		c45.4-3.2,85.3,29.6,90.9,74.7H1678.4z M1330.4,846.6h271.3v-53.2h-216.9V418.8h-54.4L1330.4,846.6z M1111.5,378.8
		c0.3-21.7-17-39.6-38.8-40c-0.3,0-0.6,0-0.8,0c-22,0.1-39.8,17.9-39.8,40c-0.3,21.8,17.2,39.7,39,40c0.3,0,0.5,0,0.8,0
		c21.7,0.1,39.5-17.4,39.6-39.2C1111.5,379.4,1111.5,379.1,1111.5,378.8 M1104.9,378.8c0.3,18.2-14.1,33.2-32.3,33.5
		c-0.2,0-0.5,0-0.7,0c-18.2,0.1-33-14.7-33-32.8c0-0.2,0-0.5,0-0.7c-0.1-18.4,14.6-33.4,33-33.6
		C1090.3,345.4,1105,360.5,1104.9,378.8 M1090.2,400.6l-10.8-19.8c5.7-1.1,9.7-6.4,9.1-12.3c0-8.1-5.8-12.8-16-12.8h-15.8v44.9h7.4
		v-18.8h7.8l10.3,18.7L1090.2,400.6z M1072.2,375.5h-8.1v-13h7.9c6.4,0,9.3,1.9,9.3,6.2C1081.3,373.5,1078.6,375.5,1072.2,375.5
		 M2321.4,547.7H2270v298.9h51.4V547.7z M3782.7,547.7h-51.4v298.9h51.4V547.7z"/>
	<path id="knowledge_burst" class="st0" d="M1030.6,603.5c-22.1-248.8-241.1-433-490.1-412.1c-90.3,8.5-176,43.8-246.2,101.2
		c-0.4,0.3-0.5,0.8-0.2,1.2c0.3,0.4,0.8,0.5,1.2,0.2l0,0c58.6-33.5,139.3-32.6,186.9-27.2c25.1,2.9,49.8,8.1,73.9,15.6
		c24,7.5,47.2,17.1,69.4,28.7c11.4,6.1,22.6,12.6,33.5,19.8c40.1-17.8,82.5-29.9,126-35.9h0.1c3.1-0.5,6.1,1.2,7.2,4.1
		c1.2,3.3-0.5,7-3.9,8.2c-0.3,0.1-0.5,0.2-0.8,0.2c-23.1,4.9-45.8,11.5-67.9,19.9c-0.5,0.2-0.7,0.7-0.5,1.2c0.1,0.4,0.5,0.6,0.9,0.6
		c31.2,0.1,62.2,3.4,92.7,9.8h0.2c2.7,0.5,4.8,2.7,5.2,5.4c0.5,3.5-2,6.7-5.5,7.2c-0.6,0.1-1.2,0.1-1.8,0c-26.6-4-53.6-5.6-80.5-4.7
		c-0.5,0-0.9,0.5-0.9,1c0,0.4,0.3,0.7,0.6,0.8c12.6,3.8,25,8.3,37.1,13.1c22.8,9.3,44.8,20.5,65.8,33.5l0.2,0.2c2,1.2,3.2,3.5,3,5.8
		c-0.3,3.5-3.3,6.2-6.9,5.9c-0.9-0.1-1.8-0.3-2.6-0.8c-20.8-11.5-42.5-21.3-65-29.3c-9.4-3.3-19-6.3-28.6-8.9c-0.5-0.2-1,0-1.2,0.5
		c-0.2,0.5,0,1,0.5,1.2c15.7,9.9,30.7,20.8,44.9,32.6c18.9,15.8,36.3,33.2,52.3,52l0.1,0.2c1.6,1.8,2,4.3,1,6.5
		c-1.4,3.3-5.1,4.8-8.4,3.5c-0.9-0.4-1.6-0.9-2.3-1.6c-16-17.6-33.5-33.8-52.3-48.4c-11.1-8.6-22.7-16.7-34.6-24
		c-0.4-0.3-1-0.1-1.3,0.3c-0.2,0.4-0.2,0.8,0.1,1.1c3.4,3.6,6.8,7.2,10,11c16.3,18.6,31,38.6,43.7,59.8
		c12.6,21.2,23.3,43.4,31.9,66.5v0.2c0.9,2.2,0.4,4.8-1.2,6.5c-2.4,2.6-6.5,2.8-9.1,0.4c-0.7-0.6-1.2-1.4-1.6-2.3
		c-8.9-22.1-19.7-43.3-32.4-63.4c-12.7-20.1-27.3-39-43.4-56.5c-16.2-17.4-33.9-33.4-52.9-47.6c-5.4-4-13.5-9.6-16.7-11.7
		c-371.9,207.4-242.8,751.9,25.5,723.5C902.4,1026.9,1048.7,825.2,1030.6,603.5 M240.7,353.8c-31.9,25.8-56.7,70.3-75.6,114
		c-0.2,0.5,0,1,0.5,1.2c0.4,0.2,0.8,0,1.1-0.3c76.5-108,233.6-180.9,386.9-162c0.5,0.1,0.9-0.2,1-0.7c0.1-0.5-0.2-0.9-0.7-1
		C436.8,270.8,315.1,293.7,240.7,353.8 M195.3,491.8c-54.8,74.3-73.5,169.2-51,258.8c2.5,10.3,9.5,31.5,14.2,45
		c0.2,0.5,0.7,0.7,1.2,0.5c0.4-0.1,0.6-0.5,0.6-0.9c-10-91.2,12.3-183.1,62.9-259.6c74-112.3,193.4-186.5,326.8-203.2
		c0.5-0.1,0.7-0.6,0.6-1.1c-0.1-0.3-0.3-0.5-0.6-0.6c-39.8-3.2-79.8-0.2-118.7,8.8c-46.5,10.5-90.8,29-130.9,54.7
		c-40.1,25.8-75.3,58.5-104,96.6L195.3,491.8 M303.5,994.8c0.4,0.3,1,0.1,1.2-0.3c0.2-0.3,0.2-0.6,0-0.9
		C273,950,198.1,800,303,589.4c46.9-93.5,123.3-168.9,217.3-214.7c10.7-5.2,21.7-9.9,32.7-14.2c0.5-0.1,0.8-0.6,0.6-1.1
		c-0.1-0.5-0.6-0.8-1.1-0.6C225.3,413.9,84.9,820.6,303.5,994.8 M304.7,827.9c6.9,79.5,38.1,225.8,190.5,254.7
		c0.5,0.1,1-0.2,1.1-0.7c0.1-0.4-0.1-0.8-0.4-1c-62.7-43.1-106.7-143.8-117.7-220.4c-8.6-53.3-8.6-107.6,0-160.9
		c16.9-104,66.4-199.9,141.4-273.9c13.6-13.3,28-25.8,43.1-37.4c0.4-0.3,0.5-0.8,0.2-1.2c-0.2-0.4-0.7-0.5-1.1-0.3
		C390.7,463.3,292,654.2,304.7,827.9"/>
</g>
</svg>
