<?xml version="1.0" encoding="utf-8"?>
<!-- Generator: Adobe Illustrator 28.1.0, SVG Export Plug-In . SVG Version: 6.00 Build 0)  -->
<svg version="1.1" id="Ebene_1" xmlns="http://www.w3.org/2000/svg" xmlns:xlink="http://www.w3.org/1999/xlink" x="0px" y="0px"
	 viewBox="0 0 116.7 56" style="enable-background:new 0 0 116.7 56;" xml:space="preserve">
<style type="text/css">
	.st0{fill:#BD0D22;}
	.st1{fill:#FFFFFF;}
</style>
<g id="Ebene_2">
	<g id="AK_Wien">
		<polygon class="st0" points="0,0 56,0 56,56 0,56 0,0 		"/>
		<polygon class="st1" points="1.2,1.2 54.8,1.2 54.8,54.8 1.2,54.8 1.2,1.2 		"/>
		<path class="st0" d="M49.1,39.9L38.2,27.8L47,16.1c0.3-0.3,0.3-0.8-0.1-1.1c-0.1-0.1-0.3-0.2-0.5-0.2H42c-0.7,0-1.4,0.3-1.9,0.9
			l-9,11.6V15.9c0-0.6-0.5-1.1-1.1-1.1h-3.6c-0.8,0-1.5,0.4-2,1L6.7,40c-0.2,0.4-0.1,0.8,0.2,1.1c0,0,0,0,0,0l0,0
			c0.1,0.1,0.3,0.1,0.4,0.1h4.3c0.8,0,1.5-0.4,2-1l3-4h8.6V40c0,0.6,0.5,1.1,1.1,1.2H30c0.6,0,1.1-0.5,1.1-1.1c0,0,0,0,0,0l0,0V29
			l10.6,11.5c0.5,0.5,1.2,0.7,1.8,0.7h4.9c0.4,0,0.8-0.3,0.8-0.7c0,0,0,0,0,0l0,0C49.3,40.2,49.2,40,49.1,39.9z M20.2,31.4l4.9-6.6
			v6.6H20.2z"/>
		<polygon class="st0" points="60.7,0 116.7,0 116.7,56 60.7,56 60.7,0 		"/>
		<path class="st1" d="M85.5,24.1h-1L84,26.9v0.3l-0.1,0.4l-0.1,0.5l-0.1,0.5L83.7,29l0,0c0-0.1,0-0.3-0.1-0.4l-0.1-0.5l-0.1-0.5
			l-0.1-0.4v-0.3L83,24.1h-1l-0.4,2.8v0.3l-0.1,0.4l-0.1,0.5l-0.1,0.5L81.3,29l0,0l-0.1-0.4l-0.1-0.5L81,27.7l-0.1-0.4l-0.1-0.3
			l-0.5-2.8h-1.1l1.4,7.7h0.8l0.5-2.7l0.1-0.4l0.1-0.5c0-0.2,0-0.4,0.1-0.5l0.1-0.5l0,0l0.1,0.5l0.1,0.5c0,0.2,0,0.3,0.1,0.5
			l0.1,0.4l0.5,2.7H84l1.4-7.7L85.5,24.1z"/>
		<polygon class="st1" points="87.5,31.9 87.5,24.1 86.4,24.1 86.4,31.9 87.5,31.9 		"/>
		<polygon class="st1" points="92.7,31.9 92.7,30.8 89.9,30.8 89.9,28.3 91.6,28.3 91.6,27.2 89.9,27.2 89.9,25.2 92.5,25.2 
			92.5,24.1 88.9,24.1 88.9,31.9 92.7,31.9 		"/>
		<path class="st1" d="M97.9,31.9v-7.8h-1.1v5l-0.1-0.2l-0.2-0.3l-0.2-0.4l-0.1-0.3l-1.7-3.7h-1v7.7h1v-5.4l0.1,0.2l0.1,0.3l0.2,0.4
			l0.1,0.3l1.9,4.1H97.9z"/>
	</g>
</g>
</svg>
