<?xml version="1.0" encoding="UTF-8" standalone="no"?>
<!DOCTYPE svg PUBLIC "-//W3C//DTD SVG 1.1//EN" "http://www.w3.org/Graphics/SVG/1.1/DTD/svg11.dtd">
<svg width="100%" height="100%" viewBox="0 0 392 90" version="1.1" xmlns="http://www.w3.org/2000/svg" xmlns:xlink="http://www.w3.org/1999/xlink" xml:space="preserve" xmlns:serif="http://www.serif.com/" style="fill-rule:evenodd;clip-rule:evenodd;stroke-linejoin:round;stroke-miterlimit:1.41421;">
    <path d="M120.2,53.7L132.3,27.1L144,53.7L120.2,53.7ZM132.4,9.9L99.9,79.4L108.5,79.4L117,60.6L147.1,60.6L155.4,79.4L164.1,79.4L132.4,9.9Z" style="fill:rgb(174,22,18);fill-rule:nonzero;"/>
    <g>
        <path d="M309.6,31.8C320.2,32.1 329.1,24.3 329.5,14.3C329.5,13.9 329.5,13.5 329.5,13.1L343.9,13.1C344.2,30.6 329.3,45.1 310.7,45.3C310.3,45.3 310,45.3 309.6,45.3L309.6,31.8Z" style="fill:rgb(174,22,18);fill-rule:nonzero;"/>
        <path d="M309.6,49C330.4,49.2 347.5,33.5 347.8,13.9C347.8,13.6 347.8,13.3 347.8,13.1L362.1,13.1C362.1,40.9 339.6,62.5 309.6,62.5L309.6,49Z" style="fill:rgb(174,22,18);fill-rule:nonzero;"/>
        <path d="M309.6,66.1C340.7,66.1 366,45.2 366,13L380.1,13C380.1,51.4 351.9,79.4 309.6,79.4L309.6,66.1Z" style="fill:rgb(174,22,18);fill-rule:nonzero;"/>
        <path d="M325.5,13.1L318.2,13.1C313.4,13.1 309.5,16.8 309.5,21.3L309.5,28.2C318,28.5 325.1,22.3 325.4,14.3C325.5,13.9 325.5,13.5 325.5,13.1" style="fill:rgb(174,22,18);fill-rule:nonzero;"/>
    </g>
    <path d="M276.3,19.9L237.9,79.4L288.4,79.4L288.4,72.6L250.9,72.6L289.4,13.1L242.8,13.1L242.8,19.9" style="fill:rgb(174,22,18);fill-rule:nonzero;"/>
    <path d="M169.4,79.4L177.2,79.4L177.2,28.3L232.2,82.4L232.2,13.1L224.3,13.1L224.3,64.5L169.4,10.2L169.4,79.4Z" style="fill:rgb(174,22,18);fill-rule:nonzero;"/>
    <path d="M81.1,9.3L55.4,65L29.8,9.3L15.5,79.4L23.5,79.4L32.6,34.5L32.8,34.5L55.4,82.2L78.1,34.5L78.3,34.5L87.3,79.4L95.4,79.4L81.1,9.3Z" style="fill:rgb(174,22,18);fill-rule:nonzero;"/>
</svg>
