<?xml version="1.0" encoding="UTF-8" standalone="no"?>
<!DOCTYPE svg PUBLIC "-//W3C//DTD SVG 1.1//EN" "http://www.w3.org/Graphics/SVG/1.1/DTD/svg11.dtd">
<svg xmlns="http://www.w3.org/2000/svg" version="1.1" viewBox="0.00 0.00 2533.00 788.00">
<g stroke-width="2.00" fill="none" stroke-linecap="butt">
<path stroke="#f18389" vector-effect="non-scaling-stroke" d="
  M 2532.24 201.24
  L 1929.76 201.24"
/>
<path stroke="#f18389" vector-effect="non-scaling-stroke" d="
  M 2532.23 401.76
  L 1929.76 401.76"
/>
<path stroke="#f18389" vector-effect="non-scaling-stroke" d="
  M 204.32 306.25
  A 0.33 0.33 0.0 0 1 203.68 306.23
  L 150.64 91.74
  A 0.33 0.33 0.0 0 0 150.32 91.49
  L 45.33 91.48
  A 0.33 0.33 0.0 0 0 45.01 91.90
  L 157.70 501.28
  A 0.33 0.33 0.0 0 0 158.02 501.52
  L 239.54 501.52
  A 0.33 0.33 0.0 0 0 239.85 501.29
  L 305.48 301.01
  A 0.33 0.33 0.0 0 1 306.10 301.01
  L 371.72 501.29
  A 0.33 0.33 0.0 0 0 372.03 501.52
  L 454.12 501.52
  A 0.33 0.33 0.0 0 0 454.44 501.28
  L 566.56 91.91
  A 0.33 0.33 0.0 0 0 566.24 91.49
  L 461.24 91.49
  A 0.33 0.33 0.0 0 0 460.92 91.74
  L 407.89 306.24
  A 0.33 0.33 0.0 0 1 407.25 306.26
  L 341.65 91.72
  A 0.33 0.33 0.0 0 0 341.34 91.49
  L 270.22 91.49
  A 0.33 0.33 0.0 0 0 269.91 91.72
  L 204.32 306.25"
/>
<path stroke="#f18389" vector-effect="non-scaling-stroke" d="
  M 881.21 235.66
  Q 881.00 235.32 881.00 234.91
  Q 881.00 170.50 881.00 92.28
  Q 881.00 91.72 880.44 91.72
  L 781.75 91.73
  Q 781.23 91.73 781.23 92.25
  L 781.23 501.00
  Q 781.23 501.53 781.75 501.53
  L 880.47 501.52
  Q 881.00 501.52 881.00 500.99
  Q 881.00 438.30 881.00 375.16
  Q 881.00 373.25 882.27 371.79
  Q 898.70 352.93 915.01 334.14
  A 0.35 0.34 50.9 0 1 915.57 334.20
  L 1009.28 501.06
  Q 1009.54 501.53 1010.08 501.53
  L 1126.95 501.52
  A 0.24 0.24 0.0 0 0 1127.16 501.15
  L 983.23 258.01
  A 0.82 0.82 0.0 0 1 983.31 257.06
  L 1122.51 92.08
  Q 1122.81 91.73 1122.35 91.73
  L 999.62 91.73
  Q 999.15 91.73 998.85 92.10
  L 881.47 235.68
  A 0.16 0.16 0.0 0 1 881.21 235.66"
/>
<path stroke="#f18389" vector-effect="non-scaling-stroke" d="
  M 1785.46 271.02
  C 1774.32 162.34 1688.81 83.72 1579.93 79.14
  C 1533.75 77.21 1488.97 87.89 1450.71 111.98
  C 1381.29 155.70 1346.96 233.56 1353.24 314.35
  C 1360.65 409.78 1425.76 487.31 1520.04 507.33
  C 1586.79 521.50 1658.56 506.85 1711.37 462.44
  C 1767.49 415.25 1792.92 343.81 1785.46 271.02"
/>
<path stroke="#f18389" vector-effect="non-scaling-stroke" d="
  M 1604.91 186.64
  Q 1590.62 180.66 1575.17 179.84
  C 1520.32 176.94 1480.52 219.91 1471.99 271.75
  Q 1466.17 307.09 1477.33 340.70
  C 1489.79 378.20 1520.74 407.78 1560.92 411.32
  C 1586.21 413.55 1610.64 405.79 1629.96 389.22
  C 1662.33 361.47 1673.83 315.50 1667.65 274.22
  C 1661.94 236.09 1640.66 201.59 1604.91 186.64"
/>
</g>
<path fill="#e30613" d="
  M 607.25 602.38
  A 0.37 0.37 0.0 0 1 606.88 602.75
  L 4.86 602.75
  A 0.37 0.37 0.0 0 1 4.49 602.38
  L 4.49 0.62
  A 0.37 0.37 0.0 0 1 4.86 0.25
  L 606.88 0.25
  A 0.37 0.37 0.0 0 1 607.25 0.62
  L 607.25 602.38
  Z
  M 204.32 306.25
  A 0.33 0.33 0.0 0 1 203.68 306.23
  L 150.64 91.74
  A 0.33 0.33 0.0 0 0 150.32 91.49
  L 45.33 91.48
  A 0.33 0.33 0.0 0 0 45.01 91.90
  L 157.70 501.28
  A 0.33 0.33 0.0 0 0 158.02 501.52
  L 239.54 501.52
  A 0.33 0.33 0.0 0 0 239.85 501.29
  L 305.48 301.01
  A 0.33 0.33 0.0 0 1 306.10 301.01
  L 371.72 501.29
  A 0.33 0.33 0.0 0 0 372.03 501.52
  L 454.12 501.52
  A 0.33 0.33 0.0 0 0 454.44 501.28
  L 566.56 91.91
  A 0.33 0.33 0.0 0 0 566.24 91.49
  L 461.24 91.49
  A 0.33 0.33 0.0 0 0 460.92 91.74
  L 407.89 306.24
  A 0.33 0.33 0.0 0 1 407.25 306.26
  L 341.65 91.72
  A 0.33 0.33 0.0 0 0 341.34 91.49
  L 270.22 91.49
  A 0.33 0.33 0.0 0 0 269.91 91.72
  L 204.32 306.25
  Z"
/>
<path fill="#e30613" d="
  M 1239.00 602.41
  A 0.34 0.34 0.0 0 1 1238.66 602.75
  L 636.84 602.75
  A 0.34 0.34 0.0 0 1 636.50 602.41
  L 636.50 0.59
  A 0.34 0.34 0.0 0 1 636.84 0.25
  L 1238.66 0.25
  A 0.34 0.34 0.0 0 1 1239.00 0.59
  L 1239.00 602.41
  Z
  M 881.21 235.66
  Q 881.00 235.32 881.00 234.91
  Q 881.00 170.50 881.00 92.28
  Q 881.00 91.72 880.44 91.72
  L 781.75 91.73
  Q 781.23 91.73 781.23 92.25
  L 781.23 501.00
  Q 781.23 501.53 781.75 501.53
  L 880.47 501.52
  Q 881.00 501.52 881.00 500.99
  Q 881.00 438.30 881.00 375.16
  Q 881.00 373.25 882.27 371.79
  Q 898.70 352.93 915.01 334.14
  A 0.35 0.34 50.9 0 1 915.57 334.20
  L 1009.28 501.06
  Q 1009.54 501.53 1010.08 501.53
  L 1126.95 501.52
  A 0.24 0.24 0.0 0 0 1127.16 501.15
  L 983.23 258.01
  A 0.82 0.82 0.0 0 1 983.31 257.06
  L 1122.51 92.08
  Q 1122.81 91.73 1122.35 91.73
  L 999.62 91.73
  Q 999.15 91.73 998.85 92.10
  L 881.47 235.68
  A 0.16 0.16 0.0 0 1 881.21 235.66
  Z"
/>
<path fill="#e30613" d="
  M 1870.99 602.42
  A 0.33 0.33 0.0 0 1 1870.66 602.75
  L 1268.58 602.75
  A 0.33 0.33 0.0 0 1 1268.25 602.42
  L 1268.25 0.58
  A 0.33 0.33 0.0 0 1 1268.58 0.25
  L 1870.66 0.25
  A 0.33 0.33 0.0 0 1 1870.99 0.58
  L 1870.99 602.42
  Z
  M 1785.46 271.02
  C 1774.32 162.34 1688.81 83.72 1579.93 79.14
  C 1533.75 77.21 1488.97 87.89 1450.71 111.98
  C 1381.29 155.70 1346.96 233.56 1353.24 314.35
  C 1360.65 409.78 1425.76 487.31 1520.04 507.33
  C 1586.79 521.50 1658.56 506.85 1711.37 462.44
  C 1767.49 415.25 1792.92 343.81 1785.46 271.02
  Z"
/>
<path fill="#e30613" d="
  M 2532.24 201.24
  L 1929.76 201.24
  L 1929.78 0.51
  A 0.26 0.26 0.0 0 1 1930.04 0.25
  L 2531.99 0.25
  A 0.24 0.24 0.0 0 1 2532.23 0.49
  L 2532.24 201.24
  Z"
/>
<path fill="#ffffff" d="
  M 1579.93 79.14
  C 1688.81 83.72 1774.32 162.34 1785.46 271.02
  C 1792.92 343.81 1767.49 415.25 1711.37 462.44
  C 1658.56 506.85 1586.79 521.50 1520.04 507.33
  C 1425.76 487.31 1360.65 409.78 1353.24 314.35
  C 1346.96 233.56 1381.29 155.70 1450.71 111.98
  C 1488.97 87.89 1533.75 77.21 1579.93 79.14
  Z
  M 1604.91 186.64
  Q 1590.62 180.66 1575.17 179.84
  C 1520.32 176.94 1480.52 219.91 1471.99 271.75
  Q 1466.17 307.09 1477.33 340.70
  C 1489.79 378.20 1520.74 407.78 1560.92 411.32
  C 1586.21 413.55 1610.64 405.79 1629.96 389.22
  C 1662.33 361.47 1673.83 315.50 1667.65 274.22
  C 1661.94 236.09 1640.66 201.59 1604.91 186.64
  Z"
/>
<path fill="#ffffff" d="
  M 204.32 306.25
  L 269.91 91.72
  A 0.33 0.33 0.0 0 1 270.22 91.49
  L 341.34 91.49
  A 0.33 0.33 0.0 0 1 341.65 91.72
  L 407.25 306.26
  A 0.33 0.33 0.0 0 0 407.89 306.24
  L 460.92 91.74
  A 0.33 0.33 0.0 0 1 461.24 91.49
  L 566.24 91.49
  A 0.33 0.33 0.0 0 1 566.56 91.91
  L 454.44 501.28
  A 0.33 0.33 0.0 0 1 454.12 501.52
  L 372.03 501.52
  A 0.33 0.33 0.0 0 1 371.72 501.29
  L 306.10 301.01
  A 0.33 0.33 0.0 0 0 305.48 301.01
  L 239.85 501.29
  A 0.33 0.33 0.0 0 1 239.54 501.52
  L 158.02 501.52
  A 0.33 0.33 0.0 0 1 157.70 501.28
  L 45.01 91.90
  A 0.33 0.33 0.0 0 1 45.33 91.48
  L 150.32 91.49
  A 0.33 0.33 0.0 0 1 150.64 91.74
  L 203.68 306.23
  A 0.33 0.33 0.0 0 0 204.32 306.25
  Z"
/>
<path fill="#ffffff" d="
  M 881.21 235.66
  A 0.16 0.16 0.0 0 0 881.47 235.68
  L 998.85 92.10
  Q 999.15 91.73 999.62 91.73
  L 1122.35 91.73
  Q 1122.81 91.73 1122.51 92.08
  L 983.31 257.06
  A 0.82 0.82 0.0 0 0 983.23 258.01
  L 1127.16 501.15
  A 0.24 0.24 0.0 0 1 1126.95 501.52
  L 1010.08 501.53
  Q 1009.54 501.53 1009.28 501.06
  L 915.57 334.20
  A 0.35 0.34 50.9 0 0 915.01 334.14
  Q 898.70 352.93 882.27 371.79
  Q 881.00 373.25 881.00 375.16
  Q 881.00 438.30 881.00 500.99
  Q 881.00 501.52 880.47 501.52
  L 781.75 501.53
  Q 781.23 501.53 781.23 501.00
  L 781.23 92.25
  Q 781.23 91.73 781.75 91.73
  L 880.44 91.72
  Q 881.00 91.72 881.00 92.28
  Q 881.00 170.50 881.00 234.91
  Q 881.00 235.32 881.21 235.66
  Z"
/>
<path fill="#e30613" d="
  M 1604.91 186.64
  C 1640.66 201.59 1661.94 236.09 1667.65 274.22
  C 1673.83 315.50 1662.33 361.47 1629.96 389.22
  C 1610.64 405.79 1586.21 413.55 1560.92 411.32
  C 1520.74 407.78 1489.79 378.20 1477.33 340.70
  Q 1466.17 307.09 1471.99 271.75
  C 1480.52 219.91 1520.32 176.94 1575.17 179.84
  Q 1590.62 180.66 1604.91 186.64
  Z"
/>
<path fill="#ffffff" d="
  M 1929.76 201.24
  L 2532.24 201.24
  L 2532.23 401.76
  L 1929.76 401.76
  L 1929.76 201.24
  Z"
/>
<path fill="#e30613" d="
  M 1929.76 401.76
  L 2532.23 401.76
  L 2532.18 602.28
  Q 2532.18 602.75 2531.71 602.75
  L 1930.29 602.75
  Q 1929.82 602.75 1929.82 602.27
  L 1929.76 401.76
  Z"
/>
<rect fill="#646363" x="1682.75" y="669.25" width="17.24" height="18.74" rx="0.32"/>
<rect fill="#646363" x="1711.24" y="669.25" width="17.26" height="18.74" rx="0.37"/>
<path fill="#646363" d="
  M 372.96 732.73
  C 368.17 712.47 380.69 697.30 400.80 695.85
  C 413.57 694.93 426.07 697.16 435.40 706.28
  Q 435.62 706.49 435.40 706.71
  L 421.93 720.18
  Q 421.42 720.69 420.90 720.19
  Q 414.92 714.51 403.16 715.31
  Q 398.71 715.61 396.11 718.07
  C 391.22 722.72 393.99 728.91 400.31 729.96
  C 412.97 732.06 429.27 731.93 434.85 746.36
  Q 437.27 752.61 436.84 760.67
  C 435.96 777.21 422.28 785.97 406.86 787.30
  Q 395.03 788.31 384.45 785.52
  Q 374.92 783.01 368.03 775.93
  Q 367.62 775.51 368.04 775.10
  L 381.57 761.57
  Q 381.99 761.15 382.43 761.55
  Q 385.97 764.76 390.90 766.09
  C 397.31 767.82 415.90 770.30 414.83 758.56
  Q 414.32 753.02 407.93 752.12
  C 394.32 750.20 376.93 749.48 372.96 732.73
  Z"
/>
<path fill="#646363" d="
  M 462.68 724.64
  C 463.70 712.15 471.57 702.46 483.39 697.83
  Q 489.73 695.34 498.84 695.76
  C 514.07 696.46 525.24 705.11 529.60 720.18
  Q 530.24 722.41 530.52 724.66
  Q 530.60 725.25 530.01 725.25
  L 508.30 725.25
  Q 507.80 725.25 507.68 724.77
  Q 505.28 715.80 496.63 715.68
  C 486.24 715.54 484.87 724.72 484.60 732.69
  Q 484.23 743.79 484.82 753.74
  Q 485.04 757.35 486.22 760.78
  C 488.41 767.17 496.12 769.02 501.58 766.52
  Q 506.09 764.45 507.68 758.46
  A 0.62 0.62 0.0 0 1 508.28 758.00
  L 530.23 758.00
  A 0.33 0.32 -85.5 0 1 530.55 758.38
  C 527.42 779.40 510.23 790.25 489.47 786.99
  C 475.79 784.84 464.87 774.21 462.98 760.43
  Q 460.96 745.76 462.68 724.64
  Z"
/>
<path fill="#646363" d="
  M 955.10 715.43
  C 944.78 716.66 942.88 728.90 954.61 730.28
  C 968.35 731.89 985.30 733.16 988.88 750.04
  C 991.15 760.74 989.64 771.22 981.39 778.70
  Q 973.29 786.05 959.88 787.27
  Q 947.40 788.40 936.40 785.25
  Q 927.62 782.73 920.81 775.87
  Q 920.42 775.47 920.81 775.07
  L 934.32 761.57
  Q 934.80 761.09 935.31 761.54
  C 940.33 766.00 947.27 767.32 954.05 767.57
  C 959.69 767.77 968.37 766.59 967.79 758.79
  Q 967.37 753.18 961.24 752.17
  Q 956.39 751.37 951.79 750.85
  C 935.71 749.04 925.11 742.13 924.89 724.85
  C 924.64 706.37 938.74 696.31 955.93 695.74
  C 968.13 695.33 979.62 697.69 988.19 706.25
  A 0.49 0.49 0.0 0 1 988.19 706.93
  L 974.70 720.42
  Q 974.38 720.73 974.06 720.42
  C 969.21 715.55 961.57 714.67 955.10 715.43
  Z"
/>
<path fill="#646363" d="
  M 1737.12 768.01
  C 1733.01 778.82 1721.90 786.06 1710.50 787.31
  C 1691.59 789.37 1674.84 779.36 1671.92 759.55
  Q 1671.42 756.16 1671.37 753.24
  Q 1671.19 742.89 1671.24 733.24
  Q 1671.28 726.70 1672.59 720.29
  C 1675.32 706.96 1687.23 697.23 1700.74 695.92
  C 1711.43 694.89 1721.09 696.92 1729.25 704.14
  C 1737.72 711.65 1739.97 721.85 1740.04 732.75
  Q 1740.14 748.22 1739.89 754.09
  Q 1739.58 761.52 1737.12 768.01
  Z
  M 1706.72 715.80
  C 1695.54 714.92 1693.91 724.43 1693.74 733.35
  Q 1693.67 737.43 1693.62 741.47
  Q 1693.51 749.09 1694.25 756.26
  C 1694.72 760.88 1696.75 764.99 1701.18 766.67
  C 1708.29 769.36 1715.84 765.41 1716.77 757.77
  Q 1718.67 741.99 1716.91 726.51
  Q 1715.78 716.51 1706.72 715.80
  Z"
/>
<path fill="#646363" d="
  M 1765.56 732.22
  C 1761.58 714.07 1771.58 699.04 1789.94 696.31
  C 1803.49 694.30 1818.05 696.42 1828.14 706.30
  A 0.30 0.28 45.0 0 1 1828.15 706.71
  L 1814.66 720.20
  Q 1814.18 720.68 1813.68 720.21
  Q 1808.06 714.88 1797.21 715.20
  C 1793.08 715.32 1788.80 716.62 1786.97 720.58
  C 1784.24 726.50 1789.96 729.76 1794.82 730.33
  C 1807.72 731.84 1824.30 733.17 1828.35 748.61
  Q 1829.55 753.19 1829.64 758.35
  C 1829.98 776.24 1815.77 786.02 1799.23 787.33
  C 1785.22 788.43 1771.02 786.17 1760.69 775.99
  Q 1760.29 775.60 1760.69 775.20
  L 1774.31 761.57
  Q 1774.70 761.18 1775.11 761.55
  C 1780.10 765.97 1786.85 767.29 1793.47 767.55
  C 1799.76 767.80 1808.54 766.62 1807.48 758.24
  Q 1806.80 752.92 1800.90 752.14
  Q 1792.57 751.05 1785.11 749.71
  C 1775.68 748.01 1767.72 742.07 1765.56 732.22
  Z"
/>
<path fill="#646363" d="
  M 2439.20 758.56
  C 2435.90 780.31 2417.31 790.89 2396.56 786.68
  Q 2386.99 784.74 2379.53 777.12
  C 2373.44 770.89 2371.06 761.88 2370.86 752.99
  Q 2370.66 743.70 2370.73 733.50
  Q 2370.78 726.47 2372.16 720.05
  C 2375.05 706.69 2387.05 697.09 2400.59 695.89
  C 2420.29 694.16 2435.86 704.15 2439.26 724.62
  Q 2439.36 725.25 2438.72 725.25
  L 2417.19 725.25
  A 0.90 0.89 81.8 0 1 2416.33 724.60
  Q 2413.49 714.72 2403.46 715.81
  C 2397.95 716.40 2394.50 720.61 2393.95 725.80
  Q 2392.21 742.16 2393.96 757.09
  Q 2394.99 765.95 2403.01 767.36
  C 2409.57 768.52 2414.68 765.04 2416.32 758.55
  Q 2416.46 758.00 2417.02 758.00
  L 2438.72 758.00
  Q 2439.28 758.00 2439.20 758.56
  Z"
/>
<path fill="#646363" d="
  M 57.58 743.52
  L 43.54 786.34
  A 0.61 0.60 -80.5 0 1 42.97 786.75
  L 25.73 786.75
  A 0.72 0.72 0.0 0 1 25.04 786.23
  L 0.50 697.07
  Q 0.34 696.50 0.94 696.50
  L 23.27 696.50
  Q 23.80 696.50 23.93 697.02
  L 35.13 742.34
  Q 35.45 743.63 35.83 742.36
  L 49.69 697.06
  Q 49.86 696.50 50.44 696.50
  L 65.28 696.50
  Q 65.83 696.50 65.99 697.03
  L 79.97 742.75
  Q 80.24 743.64 80.46 742.73
  L 91.74 697.05
  Q 91.88 696.50 92.45 696.50
  L 114.91 696.50
  Q 115.34 696.50 115.22 696.92
  L 90.75 786.31
  Q 90.63 786.75 90.18 786.75
  L 72.81 786.75
  A 0.74 0.73 80.5 0 1 72.12 786.25
  L 58.09 743.52
  Q 57.84 742.74 57.58 743.52
  Z"
/>
<rect fill="#646363" x="138.01" y="696.51" width="22.24" height="90.24" rx="0.35"/>
<path fill="#646363" d="
  M 214.50 754.00
  L 214.50 786.25
  Q 214.50 786.75 214.00 786.75
  L 192.25 786.75
  A 0.25 0.25 0.0 0 1 192.00 786.50
  L 192.00 696.78
  A 0.27 0.27 0.0 0 1 192.26 696.51
  Q 210.43 696.43 230.18 696.54
  C 236.19 696.58 243.20 698.92 247.89 702.71
  Q 258.88 711.56 258.69 725.97
  Q 258.50 740.98 244.60 748.99
  Q 244.19 749.22 244.41 749.64
  L 263.45 786.35
  A 0.27 0.27 0.0 0 1 263.21 786.75
  L 238.23 786.75
  A 0.99 0.97 -12.2 0 1 237.34 786.19
  L 221.95 753.81
  Q 221.68 753.24 221.06 753.25
  L 215.25 753.25
  Q 214.50 753.25 214.50 754.00
  Z
  M 214.48 716.87
  L 214.52 734.17
  A 0.37 0.37 0.0 0 0 214.89 734.54
  L 226.85 734.52
  A 9.43 8.61 -0.1 0 0 236.26 725.89
  L 236.26 725.07
  A 9.43 8.61 -0.1 0 0 226.81 716.48
  L 214.85 716.50
  A 0.37 0.37 0.0 0 0 214.48 716.87
  Z"
/>
<path fill="#646363" d="
  M 304.83 716.50
  L 283.42 716.50
  A 0.42 0.42 0.0 0 1 283.00 716.08
  L 283.00 696.92
  A 0.42 0.42 0.0 0 1 283.42 696.50
  L 349.32 696.50
  A 0.42 0.42 0.0 0 1 349.74 696.92
  L 349.76 716.07
  A 0.42 0.42 0.0 0 1 349.34 716.49
  L 327.92 716.52
  A 0.42 0.42 0.0 0 0 327.50 716.94
  L 327.50 786.33
  A 0.42 0.42 0.0 0 1 327.08 786.75
  L 305.67 786.75
  A 0.42 0.42 0.0 0 1 305.25 786.33
  L 305.25 716.92
  A 0.42 0.42 0.0 0 0 304.83 716.50
  Z"
/>
<path fill="#646363" d="
  M 578.25 751.31
  L 578.25 786.44
  A 0.31 0.31 0.0 0 1 577.94 786.75
  L 556.06 786.75
  A 0.31 0.31 0.0 0 1 555.75 786.44
  L 555.75 696.81
  A 0.31 0.31 0.0 0 1 556.06 696.50
  L 577.94 696.51
  A 0.31 0.31 0.0 0 1 578.25 696.82
  L 578.25 730.69
  A 0.31 0.31 0.0 0 0 578.56 731.00
  L 601.16 731.00
  A 0.31 0.31 0.0 0 0 601.47 730.69
  L 601.58 696.82
  A 0.31 0.31 0.0 0 1 601.89 696.51
  L 623.69 696.50
  A 0.31 0.31 0.0 0 1 624.00 696.81
  L 624.00 786.44
  A 0.31 0.31 0.0 0 1 623.69 786.75
  L 601.81 786.75
  A 0.31 0.31 0.0 0 1 601.50 786.44
  L 601.50 751.31
  A 0.31 0.31 0.0 0 0 601.19 751.00
  L 578.56 751.00
  A 0.31 0.31 0.0 0 0 578.25 751.31
  Z"
/>
<path fill="#646363" d="
  M 674.26 773.49
  L 670.05 786.51
  A 0.35 0.35 0.0 0 1 669.72 786.75
  L 646.95 786.75
  A 0.35 0.35 0.0 0 1 646.62 786.28
  L 679.21 696.73
  A 0.35 0.35 0.0 0 1 679.54 696.50
  L 696.42 696.50
  A 0.35 0.35 0.0 0 1 696.75 696.73
  L 729.32 786.28
  A 0.35 0.35 0.0 0 1 728.99 786.75
  L 706.28 786.75
  A 0.35 0.35 0.0 0 1 705.94 786.50
  L 701.88 773.50
  A 0.35 0.35 0.0 0 0 701.54 773.25
  L 674.59 773.25
  A 0.35 0.35 0.0 0 0 674.26 773.49
  Z
  M 680.74 754.24
  A 0.34 0.34 0.0 0 0 681.06 754.69
  L 695.53 754.81
  A 0.34 0.34 0.0 0 0 695.85 754.37
  L 688.81 732.22
  A 0.34 0.34 0.0 0 0 688.17 732.21
  L 680.74 754.24
  Z"
/>
<path fill="#646363" d="
  M 774.50 716.85
  L 774.49 731.65
  A 0.35 0.35 0.0 0 0 774.84 732.00
  L 807.40 732.00
  A 0.35 0.35 0.0 0 1 807.75 732.35
  L 807.75 751.65
  A 0.35 0.35 0.0 0 1 807.40 752.00
  L 774.85 752.00
  A 0.35 0.35 0.0 0 0 774.50 752.35
  L 774.50 786.40
  A 0.35 0.35 0.0 0 1 774.15 786.75
  L 752.35 786.75
  A 0.35 0.35 0.0 0 1 752.00 786.40
  L 752.00 696.84
  A 0.35 0.35 0.0 0 1 752.35 696.49
  L 813.15 696.51
  A 0.35 0.35 0.0 0 1 813.50 696.86
  L 813.50 716.15
  A 0.35 0.35 0.0 0 1 813.15 716.50
  L 774.85 716.50
  A 0.35 0.35 0.0 0 0 774.50 716.85
  Z"
/>
<path fill="#646363" d="
  M 857.56 716.49
  L 836.44 716.50
  A 0.44 0.44 0.0 0 1 836.00 716.06
  L 836.00 696.93
  A 0.44 0.44 0.0 0 1 836.44 696.49
  L 902.30 696.51
  A 0.44 0.44 0.0 0 1 902.74 696.95
  L 902.76 716.04
  A 0.44 0.44 0.0 0 1 902.32 716.48
  L 880.95 716.53
  A 0.44 0.44 0.0 0 0 880.51 716.97
  L 880.49 786.31
  A 0.44 0.44 0.0 0 1 880.05 786.75
  L 858.44 786.75
  A 0.44 0.44 0.0 0 1 858.00 786.31
  L 858.00 716.93
  A 0.44 0.44 0.0 0 0 857.56 716.49
  Z"
/>
<path fill="#646363" d="
  M 1065.91 696.51
  L 1092.64 696.49
  A 0.31 0.31 0.0 0 1 1092.88 697.00
  L 1062.62 732.85
  A 0.31 0.31 0.0 0 0 1062.59 733.21
  L 1094.01 786.28
  A 0.31 0.31 0.0 0 1 1093.75 786.75
  L 1068.27 786.75
  A 0.31 0.31 0.0 0 1 1068.00 786.59
  L 1047.67 750.38
  A 0.31 0.31 0.0 0 0 1047.17 750.33
  L 1040.09 758.42
  A 0.31 0.31 0.0 0 0 1040.01 758.63
  L 1039.99 786.44
  A 0.31 0.31 0.0 0 1 1039.68 786.75
  L 1018.06 786.75
  A 0.31 0.31 0.0 0 1 1017.75 786.44
  L 1017.75 696.81
  A 0.31 0.31 0.0 0 1 1018.06 696.50
  L 1039.69 696.50
  A 0.31 0.31 0.0 0 1 1040.00 696.81
  L 1039.99 727.19
  A 0.31 0.31 0.0 0 0 1040.54 727.39
  L 1065.67 696.62
  A 0.31 0.31 0.0 0 1 1065.91 696.51
  Z"
/>
<path fill="#646363" d="
  M 1135.47 773.47
  L 1131.21 786.53
  A 0.32 0.32 0.0 0 1 1130.91 786.75
  L 1108.08 786.76
  A 0.32 0.32 0.0 0 1 1107.78 786.33
  L 1140.37 696.72
  A 0.32 0.32 0.0 0 1 1140.67 696.51
  L 1157.60 696.50
  A 0.32 0.32 0.0 0 1 1157.90 696.71
  L 1190.49 786.32
  A 0.32 0.32 0.0 0 1 1190.19 786.75
  L 1167.43 786.75
  A 0.32 0.32 0.0 0 1 1167.12 786.53
  L 1163.05 773.47
  A 0.32 0.32 0.0 0 0 1162.74 773.25
  L 1135.77 773.25
  A 0.32 0.32 0.0 0 0 1135.47 773.47
  Z
  M 1141.90 754.24
  A 0.34 0.34 0.0 0 0 1142.22 754.69
  L 1156.70 754.82
  A 0.34 0.34 0.0 0 0 1157.03 754.38
  L 1149.98 732.24
  A 0.34 0.34 0.0 0 0 1149.34 732.23
  L 1141.90 754.24
  Z"
/>
<path fill="#646363" d="
  M 1235.50 744.73
  L 1235.50 786.25
  Q 1235.50 786.75 1235.00 786.75
  L 1213.75 786.75
  Q 1213.25 786.75 1213.25 786.25
  L 1213.25 696.75
  A 0.25 0.25 0.0 0 1 1213.50 696.50
  L 1234.83 696.50
  Q 1235.26 696.50 1235.46 696.88
  L 1255.13 735.49
  A 0.27 0.27 0.0 0 0 1255.61 735.49
  L 1275.22 696.97
  Q 1275.46 696.49 1276.00 696.49
  L 1296.76 696.52
  A 0.75 0.74 -0.0 0 1 1297.51 697.26
  L 1297.50 786.25
  Q 1297.50 786.75 1297.00 786.75
  L 1275.63 786.75
  Q 1275.00 786.75 1275.00 786.13
  L 1275.00 745.73
  Q 1275.00 744.23 1274.25 745.53
  L 1262.78 765.53
  Q 1262.51 766.00 1261.96 766.00
  L 1248.82 766.00
  Q 1248.21 766.00 1247.90 765.47
  L 1235.94 744.61
  Q 1235.50 743.85 1235.50 744.73
  Z"
/>
<path fill="#646363" d="
  M 1351.75 745.43
  L 1351.75 786.50
  A 0.25 0.25 0.0 0 1 1351.50 786.75
  L 1329.50 786.75
  A 0.25 0.25 0.0 0 1 1329.25 786.50
  L 1329.25 696.75
  A 0.25 0.25 0.0 0 1 1329.50 696.50
  L 1350.78 696.50
  A 0.89 0.89 0.0 0 1 1351.57 696.98
  L 1371.15 735.49
  A 0.27 0.27 0.0 0 0 1371.63 735.49
  L 1391.38 696.75
  A 0.47 0.47 0.0 0 1 1391.80 696.49
  L 1412.76 696.51
  A 0.76 0.75 0.4 0 1 1413.51 697.26
  L 1413.50 786.25
  Q 1413.50 786.75 1413.00 786.75
  L 1391.75 786.75
  Q 1391.25 786.75 1391.25 786.25
  L 1391.25 744.72
  Q 1391.25 743.87 1390.83 744.61
  L 1378.81 765.54
  Q 1378.55 766.00 1378.01 766.00
  L 1364.77 766.00
  Q 1364.24 766.00 1363.98 765.54
  L 1352.35 745.27
  Q 1351.75 744.22 1351.75 745.43
  Z"
/>
<path fill="#646363" d="
  M 1467.75 716.85
  L 1467.75 730.90
  A 0.35 0.35 0.0 0 0 1468.10 731.25
  L 1500.65 731.25
  A 0.35 0.35 0.0 0 1 1501.00 731.60
  L 1501.00 750.90
  A 0.35 0.35 0.0 0 1 1500.65 751.25
  L 1468.10 751.25
  A 0.35 0.35 0.0 0 0 1467.75 751.60
  L 1467.75 766.40
  A 0.35 0.35 0.0 0 0 1468.10 766.75
  L 1506.40 766.75
  A 0.35 0.35 0.0 0 1 1506.75 767.10
  L 1506.75 786.40
  A 0.35 0.35 0.0 0 1 1506.40 786.75
  L 1445.60 786.75
  A 0.35 0.35 0.0 0 1 1445.25 786.40
  L 1445.25 696.85
  A 0.35 0.35 0.0 0 1 1445.60 696.50
  L 1506.39 696.51
  A 0.35 0.35 0.0 0 1 1506.74 696.86
  L 1506.75 716.15
  A 0.35 0.35 0.0 0 1 1506.40 716.50
  L 1468.10 716.50
  A 0.35 0.35 0.0 0 0 1467.75 716.85
  Z"
/>
<path fill="#646363" d="
  M 1558.50 753.88
  L 1558.50 786.25
  Q 1558.50 786.75 1558.00 786.75
  L 1536.25 786.75
  A 0.25 0.25 0.0 0 1 1536.00 786.50
  L 1536.00 696.78
  A 0.35 0.34 -0.0 0 1 1536.35 696.44
  Q 1550.43 696.68 1566.10 696.41
  Q 1577.57 696.21 1583.47 698.13
  C 1597.30 702.66 1605.78 718.17 1601.76 732.76
  Q 1598.92 743.08 1588.59 748.93
  Q 1588.14 749.19 1588.38 749.65
  L 1607.42 786.38
  A 0.26 0.25 -13.4 0 1 1607.19 786.75
  L 1582.07 786.75
  Q 1581.57 786.75 1581.35 786.30
  L 1565.89 753.80
  Q 1565.63 753.25 1565.02 753.25
  L 1559.12 753.25
  Q 1558.50 753.25 1558.50 753.88
  Z
  M 1558.46 716.82
  L 1558.52 734.26
  A 0.30 0.30 0.0 0 0 1558.82 734.56
  L 1570.90 734.51
  A 9.40 8.85 -0.2 0 0 1580.27 725.63
  L 1580.27 725.29
  A 9.40 8.85 -0.2 0 0 1570.84 716.47
  L 1558.76 716.52
  A 0.30 0.30 0.0 0 0 1558.46 716.82
  Z"
/>
<path fill="#646363" d="
  M 1897.00 716.91
  L 1897.00 786.33
  A 0.42 0.42 0.0 0 1 1896.58 786.75
  L 1874.92 786.75
  A 0.42 0.42 0.0 0 1 1874.50 786.33
  L 1874.50 716.93
  A 0.42 0.42 0.0 0 0 1874.08 716.51
  L 1852.67 716.49
  A 0.42 0.42 0.0 0 1 1852.25 716.07
  L 1852.26 696.93
  A 0.42 0.42 0.0 0 1 1852.68 696.51
  L 1918.58 696.49
  A 0.42 0.42 0.0 0 1 1919.00 696.91
  L 1919.00 716.08
  A 0.42 0.42 0.0 0 1 1918.58 716.50
  L 1897.42 716.49
  A 0.42 0.42 0.0 0 0 1897.00 716.91
  Z"
/>
<path fill="#646363" d="
  M 1968.00 716.81
  L 1968.00 730.94
  A 0.31 0.31 0.0 0 0 1968.31 731.25
  L 2000.94 731.25
  A 0.31 0.31 0.0 0 1 2001.25 731.56
  L 2001.25 750.94
  A 0.31 0.31 0.0 0 1 2000.94 751.25
  L 1968.31 751.25
  A 0.31 0.31 0.0 0 0 1968.00 751.56
  L 1968.00 766.44
  A 0.31 0.31 0.0 0 0 1968.31 766.75
  L 2006.69 766.75
  A 0.31 0.31 0.0 0 1 2007.00 767.06
  L 2007.00 786.44
  A 0.31 0.31 0.0 0 1 2006.69 786.75
  L 1945.81 786.75
  A 0.31 0.31 0.0 0 1 1945.50 786.44
  L 1945.51 696.82
  A 0.31 0.31 0.0 0 1 1945.82 696.51
  L 2006.69 696.49
  A 0.31 0.31 0.0 0 1 2007.00 696.80
  L 2007.00 716.19
  A 0.31 0.31 0.0 0 1 2006.69 716.50
  L 1968.31 716.50
  A 0.31 0.31 0.0 0 0 1968.00 716.81
  Z"
/>
<path fill="#646363" d="
  M 2058.50 753.88
  L 2058.50 786.25
  Q 2058.50 786.75 2058.00 786.75
  L 2036.75 786.75
  Q 2036.25 786.75 2036.25 786.25
  L 2036.25 696.95
  A 0.46 0.45 -89.4 0 1 2036.71 696.49
  Q 2051.31 696.57 2070.00 696.44
  Q 2078.24 696.38 2083.23 698.06
  C 2095.24 702.11 2102.78 712.49 2102.91 725.18
  Q 2103.06 740.54 2088.84 748.98
  Q 2088.38 749.25 2088.62 749.72
  L 2107.65 786.39
  A 0.25 0.25 0.0 0 1 2107.43 786.75
  L 2082.20 786.75
  Q 2081.77 786.75 2081.59 786.37
  L 2066.08 753.74
  Q 2065.84 753.24 2065.29 753.24
  L 2059.12 753.26
  Q 2058.50 753.26 2058.50 753.88
  Z
  M 2058.52 716.78
  L 2058.46 734.18
  A 0.33 0.33 0.0 0 0 2058.79 734.51
  L 2071.02 734.56
  A 9.46 8.95 0.2 0 0 2080.51 725.64
  L 2080.51 725.48
  A 9.46 8.95 0.2 0 0 2071.08 716.50
  L 2058.85 716.45
  A 0.33 0.33 0.0 0 0 2058.52 716.78
  Z"
/>
<path fill="#646363" d="
  M 2155.00 753.87
  L 2155.00 786.25
  Q 2155.00 786.75 2154.50 786.75
  L 2132.75 786.75
  Q 2132.50 786.75 2132.50 786.50
  L 2132.50 697.07
  Q 2132.50 696.52 2133.05 696.52
  Q 2147.69 696.61 2163.58 696.40
  Q 2174.33 696.27 2179.52 698.04
  C 2192.42 702.44 2200.14 714.23 2199.13 727.67
  Q 2198.10 741.42 2184.96 749.04
  A 0.37 0.37 0.0 0 0 2184.82 749.53
  L 2203.72 785.98
  A 0.53 0.52 76.1 0 1 2203.26 786.75
  L 2178.52 786.75
  A 0.71 0.70 -12.5 0 1 2177.88 786.35
  L 2162.40 753.80
  Q 2162.13 753.25 2161.52 753.25
  L 2155.63 753.25
  Q 2155.00 753.25 2155.00 753.87
  Z
  M 2155.02 716.78
  L 2154.96 734.18
  A 0.33 0.33 0.0 0 0 2155.29 734.51
  L 2167.28 734.55
  A 9.46 8.88 0.2 0 0 2176.77 725.71
  L 2176.77 725.41
  A 9.46 8.88 0.2 0 0 2167.34 716.50
  L 2155.35 716.45
  A 0.33 0.33 0.0 0 0 2155.02 716.78
  Z"
/>
<path fill="#646363" d="
  M 2251.25 751.57
  L 2251.24 766.43
  A 0.32 0.32 0.0 0 0 2251.56 766.75
  L 2289.93 766.75
  A 0.32 0.32 0.0 0 1 2290.25 767.07
  L 2290.25 786.43
  A 0.32 0.32 0.0 0 1 2289.93 786.75
  L 2229.07 786.75
  A 0.32 0.32 0.0 0 1 2228.75 786.43
  L 2228.75 696.82
  A 0.32 0.32 0.0 0 1 2229.07 696.50
  L 2289.92 696.50
  A 0.32 0.32 0.0 0 1 2290.24 696.82
  L 2290.25 716.18
  A 0.32 0.32 0.0 0 1 2289.93 716.50
  L 2251.58 716.50
  A 0.32 0.32 0.0 0 0 2251.26 716.82
  L 2251.24 730.93
  A 0.32 0.32 0.0 0 0 2251.56 731.25
  L 2284.18 731.25
  A 0.32 0.32 0.0 0 1 2284.50 731.57
  L 2284.50 750.93
  A 0.32 0.32 0.0 0 1 2284.18 751.25
  L 2251.57 751.25
  A 0.32 0.32 0.0 0 0 2251.25 751.57
  Z"
/>
<rect fill="#646363" x="2319.50" y="696.50" width="22.50" height="90.26" rx="0.27"/>
<path fill="#646363" d="
  M 2509.91 751.00
  L 2487.34 751.00
  A 0.34 0.34 0.0 0 0 2487.00 751.34
  L 2487.00 786.41
  A 0.34 0.34 0.0 0 1 2486.66 786.75
  L 2464.84 786.75
  A 0.34 0.34 0.0 0 1 2464.50 786.41
  L 2464.52 696.85
  A 0.34 0.34 0.0 0 1 2464.86 696.51
  L 2486.66 696.51
  A 0.34 0.34 0.0 0 1 2487.00 696.85
  L 2487.00 730.66
  A 0.34 0.34 0.0 0 0 2487.34 731.00
  L 2509.91 731.00
  A 0.34 0.34 0.0 0 0 2510.25 730.66
  L 2510.26 696.82
  A 0.34 0.34 0.0 0 1 2510.60 696.48
  L 2532.15 696.57
  A 0.34 0.34 0.0 0 1 2532.49 696.91
  L 2532.51 786.41
  A 0.34 0.34 0.0 0 1 2532.17 786.75
  L 2510.59 786.75
  A 0.34 0.34 0.0 0 1 2510.25 786.41
  L 2510.25 751.34
  A 0.34 0.34 0.0 0 0 2509.91 751.00
  Z"
/>
</svg>
