<?xml version="1.0" encoding="utf-8"?>
<!-- Generator: Adobe Illustrator 28.1.0, SVG Export Plug-In . SVG Version: 6.00 Build 0)  -->
<svg version="1.1" id="Ebene_1" xmlns="http://www.w3.org/2000/svg" xmlns:xlink="http://www.w3.org/1999/xlink" x="0px" y="0px"
	 viewBox="0 0 200 100" style="enable-background:new 0 0 200 100;" xml:space="preserve">
<style type="text/css">
	.st0{fill:#BD0D22;}
	.st1{fill:#FFFFFF;}
</style>
<g id="Ebene_2">
	<g id="AK_Wien">
		<polygon class="st0" points="0,2 96,2 96,98 0,98 		"/>
		<polygon class="st1" points="2.1,4.1 93.9,4.1 93.9,95.9 2.1,95.9 		"/>
		<path class="st0" d="M84.2,70.4L65.5,49.7l15.1-20c0.5-0.5,0.5-1.4-0.2-1.9c-0.2-0.2-0.5-0.3-0.9-0.3H72c-1.2,0-2.4,0.5-3.3,1.5
			L53.3,48.8V29.3c0-1-0.9-1.9-1.9-1.9h-6.2c-1.4,0-2.6,0.7-3.4,1.7L11.5,70.6c-0.3,0.7-0.2,1.4,0.3,1.9l0,0l0,0
			c0.2,0.2,0.5,0.2,0.7,0.2h7.4c1.4,0,2.6-0.7,3.4-1.7l5.1-6.9h14.7v6.5c0,1,0.9,1.9,1.9,2.1h6.3c1,0,1.9-0.9,1.9-1.9l0,0l0,0v-19
			l18.2,19.7c0.9,0.9,2.1,1.2,3.1,1.2H83c0.7,0,1.4-0.5,1.4-1.2l0,0l0,0C84.5,70.9,84.3,70.6,84.2,70.4z M34.6,55.8L43,44.5v11.3
			H34.6z"/>
		<polygon class="st0" points="104,2 200,2 200,98 104,98 		"/>
		<path class="st1" d="M146.5,43.3h-1.7l-0.9,4.8v0.5l-0.2,0.7l-0.2,0.9l-0.2,0.9v0.7l0,0c0-0.2,0-0.5-0.2-0.7l-0.2-0.9l-0.2-0.9
			l-0.2-0.7v-0.5l-0.5-4.8h-1.7l-0.7,4.8v0.5l-0.2,0.7l-0.2,0.9l-0.2,0.9v0.7l0,0l-0.2-0.7l-0.2-0.9l-0.2-0.7l-0.2-0.7l-0.2-0.5
			l-0.9-4.8h-1.9l2.4,13.2h1.4l0.9-4.6l0.2-0.7l0.2-0.9c0-0.3,0-0.7,0.2-0.9l0.2-0.9l0,0l0.2,0.9l0.2,0.9c0,0.3,0,0.5,0.2,0.9
			l0.2,0.7l0.9,4.6h1.4l2.4-13.2L146.5,43.3z"/>
		<polygon class="st1" points="149.9,56.7 149.9,43.3 148.1,43.3 148.1,56.7 		"/>
		<polygon class="st1" points="158.8,56.7 158.8,54.8 154,54.8 154,50.5 157,50.5 157,48.6 154,48.6 154,45.2 158.5,45.2 
			158.5,43.3 152.3,43.3 152.3,56.7 		"/>
		<path class="st1" d="M167.8,56.7V43.3h-1.9v8.6l-0.2-0.3l-0.3-0.5l-0.3-0.7l-0.2-0.5l-2.9-6.3h-1.7v13.2h1.7v-9.3l0.2,0.3l0.2,0.5
			l0.3,0.7l0.2,0.5l3.3,7h1.7V56.7z"/>
	</g>
</g>
</svg>
