<?xml version="1.0" encoding="utf-8"?>
<!-- Generator: Adobe Illustrator 28.1.0, SVG Export Plug-In . SVG Version: 6.00 Build 0)  -->
<svg version="1.1" id="Layer_1" xmlns:serif="http://www.serif.com/"
	 xmlns="http://www.w3.org/2000/svg" xmlns:xlink="http://www.w3.org/1999/xlink" x="0px" y="0px" viewBox="0 0 4000 1000"
	 style="enable-background:new 0 0 4000 1000;" xml:space="preserve">
<style type="text/css">
	.st0{fill:#AE1612;}
</style>
<path class="st0" d="M1176.6,583.3L1305,301l124.2,282.3H1176.6z M1306,118.5L961.1,856h91.3l90.2-199.5H1462l88.1,199.5h92.3
	L1306,118.5z"/>
<g>
	<path class="st0" d="M3186.4,350.9c112.5,3.2,206.9-79.6,211.2-185.7c0-4.2,0-8.5,0-12.7h152.8c3.2,185.7-154.9,339.6-352.3,341.7
		c-4.2,0-7.4,0-11.7,0V350.9z"/>
	<path class="st0" d="M3186.4,533.4c220.7,2.1,402.2-164.5,405.4-372.5c0-3.2,0-6.4,0-8.5h151.7c0,295-238.8,524.2-557.1,524.2
		V533.4z"/>
	<path class="st0" d="M3186.4,714.9c330,0,598.5-221.8,598.5-563.5h149.6c0,407.5-299.2,704.6-748.1,704.6V714.9z"/>
	<path class="st0" d="M3355.1,152.5h-77.5c-50.9,0-92.3,39.3-92.3,87v73.2c90.2,3.2,165.5-62.6,168.7-147.5
		C3355.1,161,3355.1,156.7,3355.1,152.5"/>
</g>
<path class="st0" d="M2833,224.6L2425.5,856h535.9v-72.2h-397.9L2972,152.5h-494.5v72.2"/>
<path class="st0" d="M1698.6,856h82.8V313.8L2365,887.8V152.5h-83.8v545.4l-582.6-576.2V856z"/>
<path class="st0" d="M761.6,112.2L488.9,703.2L217.3,112.2L65.5,856h84.9L247,379.6h2.1l239.8,506.2l240.9-506.2h2.1L827.4,856h86
	L761.6,112.2z"/>
</svg>
