<svg xmlns="http://www.w3.org/2000/svg" width="232.903" height="52" viewBox="0 0 232.903 52">
    <g id="logo" transform="translate(-135 -136.239)">
        <path id="wordmark" d="M-181.508-9.823a2.291,2.291,0,0,0-2.306-2.326,2.324,2.324,0,0,0-2.318,2.326A2.3,2.3,0,0,0-183.814-7.5a2.292,2.292,0,0,0,2.306-2.328m-.383,0a1.917,1.917,0,0,1-1.923,1.953,1.918,1.918,0,0,1-1.923-1.953,1.94,1.94,0,0,1,1.923-1.953,1.939,1.939,0,0,1,1.923,1.953m-.855,1.268-.626-1.152a.662.662,0,0,0,.53-.714c0-.475-.34-.747-.933-.747h-.922v2.612h.431V-9.644h.456l.6,1.089Zm-1.049-1.464h-.47v-.756h.46c.373,0,.54.112.54.363,0,.275-.158.393-.53.393m-2.5,15.281c0-2.576-1.628-4.142-4.7-5.222l-1.484-.522c-2.1-.731-2.642-1.567-2.642-2.646,0-1.219,1.2-1.915,2.57-1.915a3.761,3.761,0,0,1,2.935,1.358l2.028-1.762a6.2,6.2,0,0,0-4.963-2.276c-3.293,0-5.646,2.019-5.646,4.63,0,2.089,1.122,4,4.307,5.153l1.412.522c2.134.731,3.075,1.462,3.075,2.785s-1.447,2.193-3.221,2.193a5.336,5.336,0,0,1-4.27-2.193l-2.139,1.86a8.082,8.082,0,0,0,6.337,3.015c3.944,0,6.405-2.193,6.405-4.979m-18.858-17.407h3.275v-2.8h-3.275Zm-3.03,20.672L-214.5,1.259l6.267-7.208.052-.06-2.112-1.836-6.061,6.972-6.009-6.912-.053-.06-2.111,1.836,6.319,7.268-6.267,7.208-.052.061,2.111,1.835,6.062-6.971,6.008,6.911.052.06ZM-239.6,1.99h14.134c-.069-6.2-3.621-9.714-8.494-9.714A8.779,8.779,0,0,0-242.7,1.259a8.8,8.8,0,0,0,8.948,8.982,9.688,9.688,0,0,0,7-2.82l-.014-.017L-228.9,5.552a7.223,7.223,0,0,1-4.851,1.869A5.807,5.807,0,0,1-239.6,1.99m.139-2.611a5.447,5.447,0,0,1,5.326-4.352,4.972,4.972,0,0,1,5.291,4.352Zm-7.584,10.584h.626V-14.947h-3.167V2.959l-16.989-17.906h-.627V9.963h3.169V-7.944Zm-24.344-4.7c0-2.576-1.628-4.142-4.7-5.222l-1.485-.522c-2.1-.731-2.641-1.567-2.641-2.646,0-1.219,1.2-1.915,2.57-1.915a3.761,3.761,0,0,1,2.935,1.358l2.027-1.762a6.2,6.2,0,0,0-4.962-2.276c-3.293,0-5.646,2.019-5.646,4.63,0,2.089,1.122,4,4.307,5.153l1.411.522c2.135.731,3.076,1.462,3.076,2.785s-1.447,2.193-3.221,2.193a5.334,5.334,0,0,1-4.27-2.193l-2.139,1.86a8.082,8.082,0,0,0,6.337,3.015c3.944,0,6.405-2.193,6.405-4.979m-18.856-17.407h3.275v-2.8h-3.275Zm-3.031,20.672-6.319-7.269,6.267-7.208.052-.06-2.112-1.836-6.061,6.972-6.009-6.912-.053-.06-2.112,1.836,6.319,7.268-6.267,7.208-.053.061,2.112,1.835,6.062-6.971,6.008,6.911.053.06ZM-324.695,1.99h14.134c-.069-6.2-3.62-9.714-8.494-9.714a8.779,8.779,0,0,0-8.738,8.983,8.8,8.8,0,0,0,8.948,8.982,9.689,9.689,0,0,0,7-2.82l-.015-.017-2.131-1.852a7.223,7.223,0,0,1-4.851,1.869,5.807,5.807,0,0,1-5.849-5.431m.14-2.611a5.447,5.447,0,0,1,5.326-4.352,4.974,4.974,0,0,1,5.292,4.352ZM-344.817,9.963h15.8v-3.1h-12.629v-21.81h-3.169Zm-12.745-27.237a2.292,2.292,0,0,0-2.306-2.327,2.325,2.325,0,0,0-2.318,2.327,2.3,2.3,0,0,0,2.318,2.328,2.293,2.293,0,0,0,2.306-2.328m-.384,0a1.917,1.917,0,0,1-1.923,1.953,1.918,1.918,0,0,1-1.923-1.953,1.94,1.94,0,0,1,1.923-1.954,1.94,1.94,0,0,1,1.923,1.954m-.855,1.268-.626-1.151a.663.663,0,0,0,.531-.714c0-.474-.34-.746-.933-.746h-.922v2.612h.431V-17.1h.456l.6,1.089Zm-1.049-1.464h-.471v-.756h.46c.373,0,.54.112.54.363,0,.276-.158.393-.529.393m72.737,10.026h-2.994V9.962h2.994Zm85.094,0h-2.994V9.962h2.994Z" transform="translate(549.411 164.531)"/>
        <path id="knowledge_burst" data-name="knowledge burst" d="M-52.376-24.212A26.423,26.423,0,0,0-80.913-48.207a26.564,26.564,0,0,0-14.335,5.895.052.052,0,0,0,.06.085c3.41-1.953,8.11-1.9,10.882-1.581A24.026,24.026,0,0,1-80-42.9a24.1,24.1,0,0,1,4.043,1.674q1,.529,1.952,1.151a27.469,27.469,0,0,1,7.335-2.092h.006a.386.386,0,0,1,.42.239.375.375,0,0,1-.273.493,26.925,26.925,0,0,0-3.954,1.156.055.055,0,0,0,.02.106,26.7,26.7,0,0,1,5.4.571l.009,0a.376.376,0,0,1,.3.315.374.374,0,0,1-.425.418,26.017,26.017,0,0,0-4.686-.276.055.055,0,0,0-.013.107c.732.224,1.454.481,2.162.765a26.271,26.271,0,0,1,3.829,1.949l.014.009a.359.359,0,0,1,.176.339.373.373,0,0,1-.551.3,25.392,25.392,0,0,0-3.782-1.708q-.824-.287-1.666-.52a.054.054,0,0,0-.043.1,24.19,24.19,0,0,1,2.617,1.9,25.341,25.341,0,0,1,3.043,3.03l.008.01a.357.357,0,0,1,.061.377.373.373,0,0,1-.619.109,24.342,24.342,0,0,0-3.043-2.82,22.91,22.91,0,0,0-2.016-1.4.055.055,0,0,0-.069.084q.3.314.585.638a23.821,23.821,0,0,1,2.545,3.484,23.642,23.642,0,0,1,1.86,3.872l0,.01a.357.357,0,0,1-.072.379.374.374,0,0,1-.622-.113,22.9,22.9,0,0,0-1.889-3.694,22.95,22.95,0,0,0-2.529-3.288A23.054,23.054,0,0,0-72.949-38c-.313-.234-.787-.561-.974-.682C-95.577-26.608-88.063,5.1-72.437,3.449A26.243,26.243,0,0,0-52.376-24.212M-98.368-38.753c-1.859,1.5-3.3,4.091-4.4,6.638a.052.052,0,0,0,.09.051c4.454-6.29,13.6-10.535,22.526-9.432a.051.051,0,0,0,.02-.1c-6.817-1.992-13.906-.655-18.239,2.843m-2.64,8.037a18.01,18.01,0,0,0-2.971,15.067c.146.6.552,1.836.827,2.622a.052.052,0,0,0,.1-.023,22.91,22.91,0,0,1,3.661-15.119A26.754,26.754,0,0,1-80.364-40a.052.052,0,0,0,0-.1,22.555,22.555,0,0,0-6.911.511A23.834,23.834,0,0,0-94.9-36.406a23.516,23.516,0,0,0-6.056,5.624l-.05.066m6.294,29.287A.052.052,0,0,0-94.64-1.5c-1.849-2.535-6.208-11.272-.1-23.536a27.724,27.724,0,0,1,12.655-12.5q.938-.45,1.906-.825a.051.051,0,0,0-.028-.1c-19.056,3.207-27.232,26.89-14.507,37.028m.074-9.713C-94.236-6.516-92.419,2-83.548,3.685a.052.052,0,0,0,.039-.095c-3.649-2.507-6.215-8.375-6.856-12.836a29.553,29.553,0,0,1,0-9.368,28.889,28.889,0,0,1,8.234-15.948,26.775,26.775,0,0,1,2.51-2.176.051.051,0,0,0-.051-.088c-9.962,4.451-15.709,15.563-14.973,25.683" transform="translate(239.512 184.553)" fill="#e8171f"/>
    </g>
</svg>
