<?xml version="1.0" encoding="utf-8"?>
<!-- Generator: Adobe Illustrator 28.1.0, SVG Export Plug-In . SVG Version: 6.00 Build 0)  -->
<svg version="1.1" xmlns="http://www.w3.org/2000/svg" xmlns:xlink="http://www.w3.org/1999/xlink" x="0px" y="0px"
	 viewBox="0 0 564.6 188" style="enable-background:new 0 0 564.6 188;" xml:space="preserve">
<style type="text/css">
	.st0{fill:#008FC3;}
	.st1{fill:#FFFFFF;}
</style>
<g id="Layer_2">
	<rect class="st0" width="564.6" height="188"/>
</g>
<g id="Layer_1">
	<path class="st1" d="M492.7,14.4l35.3-0.1c3.8,0,6.9,3.1,6.9,6.8l0,0.4c0,3.8-3.1,6.9-6.8,6.9l-35.3,0.1c-3.8,0-6.9-3.1-6.9-6.8
		l0-0.4C485.9,17.5,488.9,14.5,492.7,14.4z"/>
	<path class="st1" d="M478.6,32.1L514,32c3.8,0,6.8,3,6.8,6.8l0,0.4c0,3.8-3,6.8-6.8,6.8l-35.5,0.1c-3.8,0-6.8-3-6.8-6.8l0-0.4
		C471.8,35.1,474.8,32.1,478.6,32.1z"/>
	<path class="st1" d="M492.7,49.5l35.4,0.1c3.8,0,6.8,3.1,6.8,6.9l0,0.4c0,3.8-3.1,6.8-6.9,6.8l-35.4-0.1c-3.8,0-6.8-3.1-6.8-6.9
		l0-0.4C485.9,52.6,489,49.5,492.7,49.5z"/>
	<path class="st1" d="M506.7,67.1h35.5c3.8,0,6.8,3.1,6.8,6.8v0.4c0,3.8-3.1,6.8-6.8,6.8h-35.5c-3.8,0-6.8-3.1-6.8-6.8V74
		C499.9,70.2,502.9,67.1,506.7,67.1z"/>
	<path class="st1" d="M492.8,84.6l35.3-0.1c3.8,0,6.9,3.1,6.9,6.9l0,0.4c0,3.8-3.1,6.9-6.9,6.9l-35.3,0.1c-3.8,0-6.9-3.1-6.9-6.9
		l0-0.4C485.9,87.7,488.9,84.6,492.8,84.6z"/>
	<path class="st1" d="M478.6,102.2H514c3.8,0,6.9,3.1,6.9,6.9v0.5c0,3.8-3.1,6.9-6.9,6.9h-35.4c-3.8,0-6.9-3.1-6.9-6.9v-0.5
		C471.7,105.3,474.8,102.2,478.6,102.2z"/>
	<path class="st1" d="M492.8,119.8l35.4,0.1c3.8,0,6.9,3.1,6.8,6.9l0,0.4c0,3.8-3.1,6.9-6.9,6.8l-35.4-0.1c-3.8,0-6.9-3.1-6.8-6.9
		l0-0.4C485.9,122.8,489,119.7,492.8,119.8z"/>
	<path class="st1" d="M506.7,137.4h35.5c3.8,0,6.8,3.1,6.8,6.8v0.4c0,3.8-3.1,6.8-6.8,6.8h-35.5c-3.8,0-6.8-3.1-6.8-6.8v-0.4
		C499.8,140.4,502.9,137.4,506.7,137.4z"/>
	<path class="st1" d="M235.5,87h0.4c4,0,7.2,3.2,7.2,7.2v67.4c0,4-3.2,7.2-7.2,7.2h-0.4c-4,0-7.2-3.2-7.2-7.2V94.2
		C228.3,90.2,231.5,87,235.5,87z"/>
	<path class="st1" d="M35.8,123.3l0.1,37.6c0,4.9-2.4,7.6-7.2,8.1c-0.7,0.1-1.3,0-1.9-0.3c-3.7-1.5-5.5-4.2-5.5-8.2
		c0.1-14.2,0.1-31-0.2-50.5c-0.2-16.6,10.9-24.6,27.1-20.4c2.3,0.6,3.4,2.1,3.2,4.5c-0.1,0.7-0.5,1.3-1.3,1.9
		c-1.9,1.2-4,1.7-6.3,1.4c-9.3-1.1-7.9,9-8.3,14.5c-0.1,1.2,0.5,1.8,1.7,1.8l8.9,0.2c1.6,0,2.6,0.9,2.9,2.5c0.2,1.1,0.1,2.1-0.4,3.2
		c-0.5,1.1-1.5,1.8-2.7,1.8h-8.1C36.4,121.4,35.8,122,35.8,123.3z"/>
	<path class="st1" d="M276.7,123.3l0,38.5c0,4.7-2.4,7.1-7.1,7l-1,0c-4-0.1-6-2.1-6-6v-39.5c0-1.4-0.7-2-2-1.8
		c-1.9,0.2-3.7-0.1-5.5-0.9c-1.2-0.5-1.9-1.5-2-2.8c-0.1-1.3,0.5-2.3,1.6-3.1c2.2-1.6,4.1-0.6,6.6-0.7c0.9-0.1,1.3-0.6,1.3-1.4
		l0-10.1c0-3.1,2.5-5.7,5.6-5.8l1.3-0.1c4.8-0.2,7.2,2.1,7.2,6.9l0,8.4c0,1.3,0.6,1.9,1.9,1.9l8.9,0.1c1.4,0,2.6,1.2,2.6,2.6
		c0,0,0,0.1,0,0.1l-0.1,0.9c-0.2,2.7-1.6,4-4.3,3.9l-7-0.1C277.3,121.3,276.7,121.9,276.7,123.3z"/>
	<path class="st1" d="M85,126.9c-4.1-7.8-15.1-5.6-21.1-1.8c-1.3,0.8-2.5,0.8-3.8-0.1c-1.3-0.9-2.1-2.1-2.3-3.6
		c-0.2-1,0.1-1.8,0.9-2.5c7.1-6.5,17.9-7.5,26.8-5.6c9.3,2,14,8.2,14.3,18.7c0.2,11.4,0.2,21.8-0.1,31.1c-0.1,1.4-0.6,2.5-1.6,3.4
		c-3.5,3.3-7.2,3.3-10.8,0c-0.8-0.7-1.3-1.8-1.2-2.9c0-0.7-0.1-1.3-0.3-1.9c-0.5-1.2-1.2-1.4-2.1-0.5
		c-24.4,24.1-45.3-15.8-16.6-26.3c5.5-2,11-3.7,16.6-5.2C85.4,129.4,85.8,128.4,85,126.9z M67.7,148.1c-1.1,3.9-0.4,7.2,2.2,9.9
		c0.6,0.7,1.5,1,2.4,1.1c10.8,0.3,13.6-12.4,13.8-20.9c0-0.9-0.4-1.2-1.2-1.1C78.2,138.3,69.7,141.4,67.7,148.1z"/>
	<path class="st1" d="M125.9,139.4c-0.8,15.1,10.3,22.9,24.4,18.2c2.4-0.8,3.9,0,4.6,2.4l0.4,1.3c0.7,2.3-0.1,3.8-2.3,4.7
		c-11.7,4.5-22,3.8-30.7-2.2c-16-10.9-15.8-35.2,0.5-46.1c7.7-5.2,16.6-6.5,26.9-3.9c0.8,0.2,1.5,0.6,2.1,1.1
		c4.3,3.9,4.1,6.6-0.7,8.2c-0.7,0.2-1.4,0.3-2.1,0.1C134.3,120.5,126.6,125.9,125.9,139.4z"/>
	<path class="st1" d="M198.2,162.7c-0.1-0.4-0.5-0.7-1-0.6c-0.1,0-0.3,0.1-0.4,0.2c-11.5,10.7-32.2,9.1-33.1-9.7
		c-0.5-11.1-0.6-21.9-0.2-32.5c0.1-3.2,1.6-5.5,4.4-6.9c0.9-0.5,1.9-0.6,2.8-0.5c4.5,0.7,6.8,3.3,6.8,7.9c0.1,8,0.1,16.4,0,25.2
		c-0.2,18.4,20.2,16.5,20.7,0.2c0.2-8.5,0.3-16.9,0.1-25.3c-0.1-4.9,2.3-7.6,7.2-8.2c0.6-0.1,1.1,0,1.6,0.2c3.6,1.1,5.4,3.6,5.5,7.3
		c0.2,12.4,0.3,26.1,0.1,41.3C212.6,170.6,200.1,172,198.2,162.7z"/>
	<path class="st1" d="M326.7,162c-0.1-1.5-0.7-1.8-1.8-0.7c-2.7,2.5-5.7,4.6-9.2,6.2c-9.6,4.6-20.4-2.1-21.2-12.6
		c-1.4-17.5,15.8-21.2,29-24.7c3.2-0.9,3.6-2.5,1.4-4.9l-0.8-0.9c-1.9-2.1-4.3-3.1-7.1-2.9c-4.7,0.3-8.9,1.7-12.5,4
		c-0.7,0.5-1.5,0.5-2.4,0.2c-1.9-0.7-3-2.2-3.3-4.3c-0.1-0.7,0.1-1.4,0.6-2c3.7-4,8.9-6.2,15.7-6.8c14.1-1.1,25.7,3.9,25.8,19.3
		c0.1,9.9,0,19.7,0,29.4C340.8,170.9,327.6,172.1,326.7,162z M321.7,138.3c-1.1,0.1-16.4,8.2-12.4,17.1c1.5,3.2,5.3,4.7,8.5,3.2
		c0.6-0.3,1.1-0.6,1.6-1c5.5-4.8,7.9-11.4,7.4-19.8c-0.1-0.9-0.5-1.3-1.5-1.1C324.2,137,321.7,138.3,321.7,138.3z"/>
	<path class="st1" d="M370,122.2c-2.9,3.4-2.4,6.5,1.3,9.1c4.5,3.2,8.7,6.6,12.5,10.2c7.3,6.9,6.9,17.5-1.6,23.3
		c-7.6,5.2-24,6.4-30.7-2.8c-0.5-0.6-0.6-1.5-0.2-2.2c0.7-1.6,1.8-2.7,3.3-3.5c0.9-0.5,1.8-0.4,2.6,0.2c5,3.5,13.7,6.6,17.5-0.5
		c1.1-2.2,0.6-4.9-1.2-6.5c-3.2-2.8-6.7-5.3-10.2-7.7c-9.3-6.1-14.4-17.4-3.2-25.4c6.9-5,15.2-5.3,24.8-1.1c2.2,1,3,2.6,2.4,5
		c-0.1,0.4-0.3,0.8-0.5,1.1c-1.2,1.7-2.8,2.2-4.7,1.6l-6.4-2.3C373.6,120,371.4,120.6,370,122.2z"/>
	<path class="st1" d="M492.7,154.9h35.4c3.8,0,6.8,3.1,6.8,6.8v0.4c0,3.8-3.1,6.8-6.8,6.8h-35.4c-3.8,0-6.8-3.1-6.8-6.8v-0.4
		C485.9,157.9,489,154.9,492.7,154.9z"/>
</g>
</svg>
