<?xml version="1.0" encoding="UTF-8"?>
<svg id="Layer_1" xmlns="http://www.w3.org/2000/svg" viewBox="0 0 105 32"><defs><style>.cls-1{fill:#3eb4e4;}.cls-2{fill:#6ebd4a;}</style></defs><path class="cls-1" d="m22.63,6.74c-1.84,0-3.34-1.51-3.34-3.35,0-1.85,1.5-3.35,3.35-3.35,1.85,0,3.35,1.51,3.35,3.35,0,.9-.35,1.74-.98,2.37-.63.63-1.47.98-2.37.98h-.01Z"/><rect class="cls-2" x="19.61" y="8.97" width="6.15" height="22.54"/><polygon class="cls-2" points="0 .24 6.69 .23 6.7 26.93 18.72 26.93 18.72 31.52 .02 31.53 0 .24"/><rect class="cls-2" x="58.44" y="1.58" width="6.15" height="29.91"/><path class="cls-2" d="m85.2,14.75l-1.28-5.78h5.31s.77,3.13.77,3.13l.84-.93c1.58-1.73,3.52-2.69,5.48-2.69h.05c3.67.01,5.52,1.52,6.4,5.2l.04.17-5.64,1.06-.05-.14c-.32-.92-.84-1.86-2.29-1.86-2.03,0-3.37,2.9-3.47,3.9v.12s0,14.58,0,14.58h-6.15s-.02-16.76-.02-16.76Z"/><path class="cls-2" d="m75.12,31.97c-6.13-.02-9.51-3.63-9.51-10.17v-3.71c-.01-6.29,3.08-9.35,9.44-9.35h.07c6.3.02,9.11,2.9,9.12,9.34v3.76s-12.49,0-12.49,0v.17c0,1.79,0,5.52,3.4,5.54,2.94,0,5.77-.22,8-.6l.18-.03.33,4-.14.03c-3.21.68-6.02,1.02-8.35,1.02h-.06Zm-.07-18.86c-1.46,0-2.4.49-2.89,1.49-.41.86-.41,1.94-.41,2.74v1.48s6.5,0,6.5,0v-1.48c0-1.78,0-4.21-3.18-4.22v-.16l-.02.16Z"/><path class="cls-2" d="m35.53,31.72c-3.88-.01-5.53-1.79-5.54-5.95v-12.39s-3.24,0-3.24,0v-4.43s3.23,0,3.23,0V3.41s6.15-1.77,6.15-1.77v7.31s8.43,0,8.43,0V3.4l6.14-1.77v7.32s6.79,0,6.79,0v4.43s-6.78,0-6.78,0v12.01c.01,1.1.7,1.79,1.8,1.79.72,0,1.48-.11,2.3-.22.45-.06.91-.13,1.38-.18l.16-.02.7,4.21-.17.02c-.32.05-.65.1-.97.15-1.82.28-3.7.58-5.75.58h-.04c-3.88-.01-5.53-1.79-5.53-5.95v-12.39s-8.44,0-8.44,0v12.01c.01,1.11.7,1.79,1.8,1.8.71,0,1.48-.11,2.29-.22.45-.06.91-.13,1.38-.18h.16s.7,4.19.7,4.19l-.17.03c-.32.05-.64.1-.97.15-1.82.28-3.7.58-5.76.58h-.05Z"/><path class="cls-2" d="m103.57,8.38c.24,0,.48.06.7.19.23.12.41.3.54.53.13.23.19.47.19.72s-.06.48-.19.71c-.13.23-.3.4-.53.53s-.46.19-.71.19-.49-.06-.71-.19c-.23-.13-.4-.3-.53-.53-.13-.23-.19-.47-.19-.71s.06-.49.19-.72c.13-.23.31-.41.54-.53.23-.12.46-.19.7-.19Zm0,.24c-.2,0-.4.05-.59.15-.19.1-.34.25-.45.44-.11.19-.16.39-.16.6s.05.4.16.59c.11.19.25.34.44.44s.39.16.59.16.4-.05.59-.16c.19-.11.34-.25.44-.44.1-.19.16-.39.16-.59s-.05-.41-.16-.6c-.11-.19-.26-.34-.45-.44-.19-.1-.39-.15-.59-.15Zm-.63,1.99v-1.54h.53c.18,0,.31.01.39.04.08.03.15.08.19.15.05.07.07.15.07.23,0,.11-.04.21-.12.29-.08.08-.19.13-.32.14.05.02.1.05.13.08.06.06.14.16.23.31l.19.3h-.3l-.14-.24c-.11-.19-.19-.31-.26-.36-.05-.04-.11-.05-.2-.05h-.15v.65h-.25Zm.25-.87h.3c.14,0,.24-.02.3-.06.05-.04.08-.1.08-.17,0-.05-.01-.09-.04-.12-.03-.04-.06-.06-.11-.08-.04-.02-.13-.03-.25-.03h-.28v.47Z"/></svg>