<?xml version="1.0" encoding="utf-8"?>
<!-- Generator: Adobe Illustrator 28.1.0, SVG Export Plug-In . SVG Version: 6.00 Build 0)  -->
<svg version="1.1" id="uuid-7f147673-8953-4dbc-8c65-25981123f476"
	 xmlns="http://www.w3.org/2000/svg" xmlns:xlink="http://www.w3.org/1999/xlink" x="0px" y="0px" viewBox="0 0 228.4 57.4"
	 style="enable-background:new 0 0 228.4 57.4;" xml:space="preserve">
<style type="text/css">
	.st0{fill:#2B6CA2;}
</style>
<path class="st0" d="M16.9,13.8h0.2l8.9-8h3.4v0.1l-10.1,9L30.2,24v0.1h-3.5L17.2,16h-0.2v8.1h-2.7V0h2.7V13.8z"/>
<path class="st0" d="M32.3,24.1V5.8H35v5.3h0.1c0.7-3.7,2.5-5.3,5.5-5.3h1.3v2.9h-1.5c-3.7,0-5.4,1.5-5.4,5.3v10L32.3,24.1
	L32.3,24.1z"/>
<path class="st0" d="M44,2.7V0h3.3v2.7H44z M44.3,24.1V5.8H47v18.3H44.3z"/>
<path class="st0" d="M59.5,7.9c-3.8,0-6.5,2.4-6.5,7.1c0,4.4,2.6,7,6.6,7s5.3-2.3,6-5.3l2.6,0.6c-0.9,4.5-3.6,7.2-8.6,7.2
	c-5.7,0-9.4-3.6-9.4-9.6s4-9.6,9.3-9.6s7.8,2.6,8.6,7.1L65.6,13C64.9,9.8,63.1,7.9,59.5,7.9L59.5,7.9z"/>
<path class="st0" d="M74.1,24.1h-2.7V0h2.7v10.7h0c0.8-3.6,3.2-5.3,6.5-5.3c5,0,6.6,3.3,6.6,7.2v11.5h-2.7V13.2
	c0-2.7-1.1-5.3-4.9-5.3c-3.5,0-5.6,2-5.6,5.3C74.1,13.2,74.1,24.1,74.1,24.1z"/>
<path class="st0" d="M94.1,24.1h-2.7V5.8h2.7v4.9h0c0.8-3.6,3.2-5.3,6.5-5.3c4.4,0,6.1,2.5,6.6,5.7h0c0.6-3.8,2.8-5.7,6.5-5.7
	c5.1,0,6.8,3.3,6.8,7.2v11.5h-2.7V13.2c0-2.7-1.1-5.3-4.9-5.3c-3.5,0-5.6,2-5.6,5.3v10.9h-2.7V13.2c0-2.7-1.1-5.3-4.9-5.3
	c-3.5,0-5.6,2-5.6,5.3C94.1,13.2,94.1,24.1,94.1,24.1z"/>
<path class="st0" d="M136.4,19.4L136.4,19.4c-0.9,3.5-3.5,5.1-6.7,5.1c-3.7,0-6-1.7-6-5.1c0-3,2.1-5.4,6.4-5.4h6.3v-1.2
	c0-3.2-1.2-5-4.5-5c-2.9,0-4.5,1.4-5,4.8l-2.6-0.4c0.6-4.4,3.2-6.7,7.7-6.7c4.9,0,7.1,2.6,7.1,7.3v11.4h-2.7
	C136.4,24.1,136.4,19.4,136.4,19.4z M136.4,17.4v-1.2h-6.1c-2.5,0-4,1-4,3c0,1.5,1,3,3.9,3C134.1,22.2,136.4,20.1,136.4,17.4z"/>
<path class="st0" d="M140.6,30.1l0.4-2.6c0.8,0.2,1.5,0.3,2.3,0.3c2.2,0,3.5-0.5,5-4l-8.1-18h3l2.7,6.4c1,2.4,2.6,6.1,3.8,9
	c1.1-2.9,2.6-6.5,3.5-8.9l2.5-6.5h2.9l-7.9,18.5c-1.9,4.3-4.1,6.1-7.5,6.1C142.2,30.4,141.3,30.3,140.6,30.1z"/>
<path class="st0" d="M161,24.1V5.8h2.7v5.3h0.1c0.7-3.7,2.5-5.3,5.5-5.3h1.3v2.9h-1.5c-3.6,0-5.4,1.5-5.4,5.3v10L161,24.1L161,24.1z
	"/>
<path class="st0" d="M93.4,41.1H14.3v-2.4h79.1v-5.2h2.7v5.2h6.2v2.4h-6.2v10.3c0,2.3,0.9,3.4,3.1,3.4c1,0,1.8-0.2,2.9-0.5l0.4,2.5
	c-1.2,0.4-2.2,0.6-3.8,0.6c-3.7,0-5.3-2.4-5.3-5.8V41.1z"/>
<path class="st0" d="M104.9,35.5v-2.7h3.3v2.7C108.2,35.5,104.9,35.5,104.9,35.5z M105.2,57V38.7h2.7V57H105.2z"/>
<path class="st0" d="M115,57h-2.7V38.7h2.7v4.9h0c0.8-3.6,3.2-5.3,6.5-5.3c5,0,6.6,3.3,6.6,7.2V57h-2.7V46.1c0-2.7-1.1-5.3-4.9-5.3
	c-3.5,0-5.6,2-5.6,5.3C115,46.1,115,57,115,57z"/>
<path class="st0" d="M135,57h-2.7V32.9h2.7v10.7h0c0.8-3.6,3.2-5.3,6.5-5.3c5,0,6.6,3.3,6.6,7.2V57h-2.7V46.1c0-2.7-1.1-5.3-4.9-5.3
	c-3.5,0-5.6,2-5.6,5.3L135,57L135,57z"/>
<path class="st0" d="M151.2,47.8c0-6,3.8-9.5,9.2-9.5s9.2,3.5,9.2,9.5s-3.5,9.6-9.2,9.6S151.2,53.7,151.2,47.8z M153.9,47.7
	c0,4.3,2.3,7.2,6.4,7.2s6.5-2.9,6.5-7.2s-2.5-7-6.5-7S153.9,43.4,153.9,47.7L153.9,47.7z"/>
<path class="st0" d="M176.7,38.7h5.9v2.4h-5.9V57H174V41.1h-3.5v-2.4h3.5v-0.3c0-3.7,2-6,6-6c1.3,0,2.2,0.2,2.9,0.3l-0.3,2.2
	c-0.9-0.2-1.6-0.3-2.4-0.3c-2.6,0-3.5,1.4-3.5,3.8L176.7,38.7L176.7,38.7z"/>
<path class="st0" d="M183.8,47.9c0-6,3.8-9.6,9.2-9.6s8.4,3.4,8.4,8.5c0,0.4,0,1.2-0.1,1.9h-14.7c0.3,4,2.6,6.3,6.5,6.3
	c3.6,0,5.1-1.9,5.7-4.2l2.4,0.7c-0.9,3.7-3.6,6-8.2,6C187.4,57.4,183.8,53.8,183.8,47.9L183.8,47.9z M186.6,46.4h12.2
	c-0.2-3.7-2.1-5.8-5.9-5.8C189.4,40.7,187,42.6,186.6,46.4z"/>
<path class="st0" d="M204.6,57V38.7h2.7V44h0.1c0.7-3.7,2.5-5.3,5.5-5.3h1.3v3h-1.5c-3.6,0-5.4,1.5-5.4,5.3v10H204.6L204.6,57z"/>
</svg>
