<?xml version="1.0" encoding="utf-8"?>
<!-- Generator: Adobe Illustrator 28.1.0, SVG Export Plug-In . SVG Version: 6.00 Build 0)  -->
<svg version="1.1" id="Layer_1" xmlns="http://www.w3.org/2000/svg" xmlns:xlink="http://www.w3.org/1999/xlink" x="0px" y="0px"
	 viewBox="0 0 646.1 126.3" style="enable-background:new 0 0 646.1 126.3;" xml:space="preserve">
<style type="text/css">
	.st0{fill:#FFFFFF;}
</style>
<path class="st0" d="M534.7,87c0.1-3.6,0.7-7.2,2-10.9c7.1-20.4,13.8-39.4,20-56.9c0.1-0.4,0-0.6-0.5-0.6h-7.9
	c-0.2,0-0.4-0.2-0.4-0.4v-0.1l0.9-2.4c0.1-0.3,0.4-0.6,0.8-0.6h41.9c0.2,0,0.4,0.2,0.4,0.4v0.1l-0.7,2.5c-0.1,0.3-0.4,0.5-0.7,0.5
	h-6.7c-0.4,0-0.7,0.2-0.9,0.6c-7.6,21.6-14.7,42.4-21.4,62.4c-4,12-5.5,27.5,11.8,29.1c18.4,1.7,27.9-10.6,33.4-26.3
	c6.8-19.7,14-40.6,21.5-62.8c0.3-0.9,0.6-1.7,1-2.5c0.1-0.2,0-0.4-0.2-0.5h-0.1h-8.4c-0.1,0-0.2-0.1-0.2-0.2c0,0,0,0,0-0.1l1-3
	c0.1-0.2,0.2-0.3,0.4-0.3H645c0.3,0,0.5,0.2,0.5,0.5c0,0.1,0,0.1,0,0.2l-0.8,2.3c-0.1,0.3-0.4,0.5-0.7,0.5h-6.7
	c-0.3,0-0.7,0.2-0.8,0.6c-8.1,24.1-15.9,47.1-23.6,69.1c-4.8,13.7-13.3,25.2-28.1,28.6c-8.7,2-17.4,2-26,0
	c-10.4-2.4-17.6-7.8-21.7-16.3c-0.1-0.1-0.2-0.2-0.4-0.1c-0.1,0-0.1,0.1-0.1,0.1l-5.4,14.6c-0.1,0.3-0.4,0.5-0.7,0.5H518
	c-0.3,0-0.5-0.2-0.6-0.4l-19-57.8c-0.3-0.9-0.6-0.9-0.9,0l-19.9,57.9c-0.1,0.2-0.2,0.3-0.4,0.3h-12.7c-0.3,0-0.5-0.1-0.6-0.4
	L424.6,19c-0.1-0.3-0.3-0.4-0.6-0.4h-6.8c-0.4,0-0.7-0.2-0.9-0.6l-0.7-2.3c-0.1-0.4,0-0.6,0.4-0.6h43.2c0.1,0,0.2,0.1,0.2,0.2l1.1,3
	c0,0.1,0,0.2-0.1,0.3c0,0,0,0-0.1,0l-8.1,0.1c-0.5,0-0.6,0.2-0.4,0.6L479,86.9c0.3,0.8,0.6,0.8,0.9,0l14.3-41.6
	c0.1-0.3,0.1-0.6,0-0.9l-8.3-25c-0.1-0.4-0.4-0.6-0.9-0.6h-6.5c-0.4,0-0.7-0.2-0.8-0.6l-0.8-2.4c-0.1-0.4,0-0.6,0.4-0.6h42.1
	c0.4,0,0.7,0.2,0.8,0.6l0.8,2.3c0.1,0.4,0,0.6-0.4,0.6h-7.9c-0.4,0-0.6,0.2-0.4,0.6l22,67.9C534.6,87.9,534.7,87.9,534.7,87z"/>
<g>
	<path class="st0" d="M59.9,4.1l-4.9,11c-0.1,0.1-0.2,0.2-0.4,0.2H48c-0.2,0-0.4-0.2-0.4-0.4v-11c0-0.2,0.2-0.4,0.4-0.4h11.5
		c0.2,0,0.4,0.2,0.4,0.4C59.9,4,59.9,4.1,59.9,4.1z"/>
	<path class="st0" d="M211.3,26.8c7,2.9,11.7,8.2,14.2,16c1.8,5.8,1.8,11.7-0.2,17.7c-1.8,5.4-4.7,9.6-8.7,12.6
		c-2.9,2.2-6.1,3.5-9.6,4.1c-4.1,0.6-8,0.6-11.7-0.2c-7.3-1.6-12.3-6.2-15.8-12.7c-2.8-5.4-3-12.2-2.3-18.3
		c0.5-3.8,1.8-7.2,4.1-10.4c6.1-8.5,14.7-11.8,25.7-10C208.6,25.8,210,26.2,211.3,26.8z M186.4,42.2c-1.8,5.8-2,10.9-0.4,16.9
		c0.7,2.7,1.8,4.9,3.3,6.6c2,2.3,4.1,3.9,6.5,4.7C206,74.1,215,68.5,218,58.5c1.1-3.5,0.9-7.4,0.6-11c-0.2-2.8-1.2-5.7-3-8.7
		C208.5,27.4,190.6,29.1,186.4,42.2z"/>
	<path class="st0" d="M322.4,56.9v19.4c0,0.3-0.1,0.4-0.4,0.4h-7.1c-0.2,0-0.3-0.1-0.3-0.3V27.5c0-0.6,0.5-1.1,1.1-1.2
		c7-1,14.8-2,21.5,0c1.9,0.6,3.7,1.7,5.6,3.4c1.5,1.4,2.6,3,3.1,4.8c2,6.6,0.3,12.2-5.3,16.9c-0.8,0.7-1.8,1.3-2.8,1.6
		c-0.6,0.2-0.9,0.8-0.7,1.4c0,0.1,0.1,0.2,0.2,0.3c5.4,7,10.9,14.3,16.7,21.9c0,0,0,0,0,0.1l0,0c-3.1,0-6.2,0-9.3,0
		c-0.2,0-0.3-0.1-0.4-0.2l-14.1-19.8c-0.2-0.3-0.5-0.4-0.8-0.5l-6.1-0.2C322.7,56,322.4,56.3,322.4,56.9z M322.5,31.2l-0.1,18.9
		c0,0.2,0.2,0.4,0.4,0.4h7c5.3,0,9.6-4.3,9.6-9.6v-0.3c0-5.4-4.2-9.8-9.4-9.8l0,0h-7C322.7,30.8,322.5,31,322.5,31.2z"/>
	<path class="st0" d="M1,31.7l-0.1-5.4c0-0.2,0.2-0.5,0.4-0.5l0,0h38.1c0.2,0,0.4,0.2,0.4,0.5c0,0.1,0,0.1,0,0.2l-2.4,5.4
		c-0.1,0.2-0.2,0.3-0.4,0.3l-12.9-0.1c-0.2,0-0.5,0.2-0.5,0.5l0,0l0.1,43.7c0,0.2-0.2,0.4-0.5,0.4l-6.5,0.1c-0.2,0-0.5-0.2-0.5-0.4
		l0,0V32.6c0-0.2-0.2-0.5-0.5-0.5l0,0L1.4,32.2C1.2,32.2,1,32,1,31.7C1,31.8,1,31.7,1,31.7z"/>
	<path class="st0" d="M47.9,25.8h6.6c0.1,0,0.3,0.1,0.3,0.3v50.3c0,0.1-0.1,0.3-0.3,0.3h-6.6c-0.1,0-0.3-0.1-0.3-0.3V26.1
		C47.6,26,47.8,25.8,47.9,25.8z"/>
	<path class="st0" d="M104.2,59.7V26.1c0-0.1,0.1-0.3,0.3-0.3l0,0h5.7c0.2,0,0.4,0.2,0.4,0.4v49.6c0,0.4-0.2,0.7-0.6,0.8
		c-1.4,0.4-2.7,0.2-3.7-1c-8.5-10.9-17-21.6-25.6-32.3c-0.6-0.7-0.8-1.7-1.4-2.2c-0.7-0.6-1-0.5-1,0.4v35c0,0.1-0.1,0.2-0.2,0.2
		h-5.7c-0.2,0-0.4-0.2-0.4-0.4V32.5c0-0.4-0.1-0.7-0.4-0.9c-1.6-1.5-2.9-3.2-4-5.1c-0.2-0.4-0.1-0.7,0.4-0.7h8.1
		c0.5,0,1,0.3,1.2,0.8c1.1,2.1,2.7,3.6,4.2,5.5c6.2,8,11.9,15.1,17,21.3c1.8,2.2,3.1,4.5,5.3,6.6C104,60.4,104.2,60.3,104.2,59.7z"
		/>
	<path class="st0" d="M134.8,47.3h23.9c0.2,0,0.4-0.2,0.4-0.4L159,26.3c0-0.2,0.2-0.4,0.4-0.4l0,0h6.7c0.2,0,0.4,0.2,0.4,0.4v50
		c0,0.2-0.2,0.4-0.4,0.4l0,0l-6.7,0.1c-0.2,0-0.4-0.2-0.4-0.4l0,0V53.8c0-0.2-0.2-0.4-0.4-0.4l-23.9,0.1c-0.2,0-0.4,0.2-0.4,0.4
		v22.4c0,0.2-0.2,0.4-0.4,0.4l-6.6,0.1c-0.2,0-0.4-0.2-0.4-0.4l0,0V26.2c0-0.2,0.2-0.4,0.4-0.4l0,0h6.6c0.2,0,0.4,0.2,0.4,0.4v20.6
		C134.4,47.1,134.6,47.3,134.8,47.3z"/>
	<path class="st0" d="M245.2,32v16.8c0,0.2,0.2,0.4,0.4,0.4l0,0l16.2-0.1c0.2,0,0.4,0.2,0.4,0.4c0,0.1,0,0.1,0,0.2l-2.4,5.1
		c-0.1,0.1-0.2,0.2-0.4,0.2l-13.8-0.1c-0.2,0-0.4,0.2-0.4,0.4l0,0v21.1c0,0.2-0.2,0.4-0.4,0.4l0,0h-6.9c-0.2,0-0.4-0.2-0.4-0.4l0,0
		v-50c0-0.2,0.2-0.4,0.4-0.4l0,0H265c0.2,0,0.4,0.2,0.4,0.4c0,0.1,0,0.1,0,0.1l-2,5c-0.1,0.1-0.2,0.2-0.4,0.2h-17.5
		C245.4,31.6,245.2,31.8,245.2,32L245.2,32z"/>
	<path class="st0" d="M283.2,54v16.4c0,0.2,0.1,0.3,0.3,0.3l0,0h20.8c0.2,0,0.3,0.2,0.3,0.3c0,0.1,0,0.1,0,0.2l-3.2,5.3
		c-0.1,0.1-0.2,0.2-0.3,0.2h-25c-0.2,0-0.3-0.1-0.3-0.3l0,0V26.3c0-0.2,0.1-0.3,0.3-0.3l0,0h26.7c0.2,0,0.3,0.1,0.3,0.3v0.1l-2,5.1
		c0,0.1-0.2,0.2-0.3,0.2h-17.1c-0.2,0-0.3,0.1-0.3,0.3l0,0v16.1c0,0.2,0.1,0.3,0.3,0.3l0,0l15.9-0.1c0.2,0,0.3,0.1,0.3,0.3v0.1
		l-2.2,4.9c-0.1,0.1-0.2,0.2-0.3,0.2h-13.7C283.4,53.7,283.2,53.9,283.2,54L283.2,54z"/>
	<circle class="st0" cx="140.4" cy="97.2" r="1.7"/>
	<path class="st0" d="M256.6,112.6c0,0.1-0.1,0.3-0.3,0.3l0,0h-0.2c-1.3,0-2.4-0.7-2.4-1.5l0,0l0.1-14.2c0-0.8,1.1-1.5,2.4-1.5h0.2
		c0.1,0,0.3,0.1,0.3,0.3L256.6,112.6z"/>
	<path class="st0" d="M183.9,95.9v16.4c0,0.2-0.1,0.3-0.3,0.3l-2.2,0.1c-0.2,0-0.3-0.1-0.3-0.3l0,0V96.7c0-0.1,0.1-0.2,0.2-0.3
		l2.2-0.8C183.6,95.6,183.8,95.7,183.9,95.9C183.9,95.8,183.9,95.9,183.9,95.9z"/>
	<path class="st0" d="M353.2,95.9l0.1,16.3c0,0.2-0.1,0.3-0.3,0.3l-2.3,0.2c-0.2,0-0.3-0.1-0.3-0.3l0,0V96.5c0-0.1,0.1-0.3,0.2-0.3
		l2.2-0.6C353,95.6,353.2,95.7,353.2,95.9L353.2,95.9z"/>
	<path class="st0" d="M335,101.1c-0.3-0.6-0.3-1.1,0.2-1.5c0.7-0.7,1.6-1,2.6-0.9c0.4,0,0.6,0.2,0.3,0.6c-0.4,0.6-0.5,1.3-0.5,2.1
		c0,0.4,0.2,0.6,0.6,0.6l2-0.1c0.3,0,0.5,0.1,0.5,0.4c0,0.7-0.1,1.2-0.5,1.6c-0.3,0.3-0.6,0.4-0.9,0.3l-1.1-0.2
		c-0.3-0.1-0.5,0.1-0.5,0.5v5.5c0,0.5,0.2,0.7,0.7,0.8c0.6,0.1,1.1,0,1.6-0.2c0.7-0.2,0.9,0,0.7,0.6l-0.2,0.8
		c-0.2,0.6-0.6,0.9-1.2,1c-5.4,1-4.6-4.5-4.3-7.8c0-0.4-0.1-0.7-0.5-0.8l-1-0.4c-0.4-0.2-0.5-0.4-0.4-0.8c0.2-0.9,0.7-1.4,1.6-1.3
		c0.2,0,0.4-0.2,0.4-0.4C335.1,101.2,335.1,101.1,335,101.1z"/>
	<path class="st0" d="M141.9,101.7v10.4c0,0.3-0.2,0.5-0.5,0.5h-2.1c-0.3,0-0.5-0.2-0.5-0.5l0,0v-9.9c0-0.2,0.2-0.5,0.4-0.5l2.1-0.5
		C141.6,101.1,141.9,101.3,141.9,101.7L141.9,101.7z"/>
	<path class="st0" d="M169.7,113.3v3.8c0,0.2-0.1,0.4-0.3,0.4l-2.1,0.4c-0.3,0.1-0.5-0.1-0.5-0.4c0.2-4.6,0.2-9.4,0-14.2
		c0-0.9,0.6-1.6,2.1-2c0.5-0.2,0.8,0,0.9,0.6c0,0.1,0,0.2,0.1,0.3c0.3,0.3,0.5,0.4,0.9,0.1c1.4-1.2,3.2-1.2,4.6,0
		c2.2,1.8,2.8,4.2,1.7,7.1c-0.9,2.4-4,4.1-6.5,3.3C169.9,112.6,169.7,112.8,169.7,113.3z M169.7,104.7v5.5c0,0.5,0.4,0.9,0.9,0.9
		l0,0h0.9c1.5,0,2.7-1.3,2.7-2.9v-1.5c0-1.6-1.2-2.9-2.7-2.9h-0.9C170.1,103.7,169.7,104.2,169.7,104.7L169.7,104.7z"/>
	<path class="st0" d="M154.9,102.6c0.3,0.3,0.6,0.3,0.9,0.1c2.9-2.3,6.8-0.7,6.6,3.1c-0.2,2.1-0.1,4,0,6c0,0.6-0.4,1.1-1,1.2
		c-0.1,0-0.2,0-0.3,0l-1.2-0.2c-0.5-0.1-0.8-0.4-0.8-0.9l0.1-6.8c0-0.9-0.4-1.3-1.3-1.2l-1.1,0.1c-0.8,0.1-1.2,0.5-1.2,1.3v7
		c0,0.4-0.2,0.5-0.5,0.6l-1.9,0.1c-0.4,0-0.6-0.2-0.6-0.6v-6.8c0-1-0.5-1.6-1.5-1.7c-0.2,0-0.3,0-0.5,0c-1,0-1.5,0.4-1.5,1.4v6.8
		c0,0.4-0.2,0.6-0.6,0.7l-1.7,0.2c-0.4,0.1-0.8-0.3-0.9-0.7v-0.1c0.1-3,0.1-5.8,0-8.5c-0.1-1.4,0.6-2,2-1.9c0.4,0,0.8,0.2,1.1,0.4
		c0.4,0.3,0.9,0.3,1.4,0.1C152.2,101,153.7,101.2,154.9,102.6z"/>
	<path class="st0" d="M222,105.2l0.1,6.8c0,0.5-0.2,0.7-0.7,0.6l-1.6-0.1c-0.4,0-0.7-0.3-0.7-0.7v-8.9c0-0.4,0.2-0.9,0.6-1.1
		c0.9-0.7,1.7-0.6,2.3,0.2c0.3,0.3,0.6,0.4,1,0.2c2-1.3,3.5-1.2,4.7,0.3c0.1,0.2,0.3,0.2,0.5,0.2c1-0.2,1.7-1,2.7-1.2
		c2.6-0.6,4.6,1.6,4.5,4.1c-0.1,2.3-0.1,4.4,0,6.3c0,0.4-0.2,0.6-0.6,0.6l-2.1,0.1c-0.4,0-0.6-0.2-0.6-0.5l0.1-6.8
		c0-0.9-0.7-1.6-1.6-1.6l0,0H230c-1.1,0-1.7,0.6-1.7,1.7l0.2,6.2c0,0.6-0.4,1-1,1l0,0h-0.9c-0.7,0-1.1-0.4-1.1-1.1l0.2-6
		c0-1-0.8-1.9-1.8-1.9c-0.1,0-0.2,0-0.3,0l-0.4,0.1C222.4,103.9,222,104.4,222,105.2z"/>
	<path class="st0" d="M242.5,113.3l0.2,3c0,0.5-0.3,1-0.7,1.2l-1.3,0.5c-0.7,0.3-1.1,0-1-0.8c0.1-4.3,0.1-8.9,0-13.8
		c0-1.3,0.8-2,2.1-2c0.3,0,0.6,0.1,0.7,0.4c0.2,0.4,0.6,0.5,1.2,0.4c0.1,0,0.3-0.1,0.4-0.2c1.3-0.9,2.6-0.8,3.9,0.2
		c5.4,4.2,1.7,11.6-4.8,10.6C242.7,112.7,242.5,112.9,242.5,113.3z M242.6,104.8l0.1,5.2c0,0.6,0.5,1.1,1.1,1.1l0,0h0.5
		c1.7,0,3.1-1.6,3.1-3.5v-0.4c0-1.9-1.5-3.4-3.2-3.4h-0.5C243.1,103.8,242.6,104.3,242.6,104.8z"/>
	<path class="st0" d="M262.9,112.2c-2.6-1.7-3.2-5.2-1.4-8c1.8-2.8,5.3-3.6,7.9-2l0,0c2.6,1.7,3.2,5.2,1.4,8
		C269,113,265.4,113.9,262.9,112.2L262.9,112.2z M266.1,111.2c1.4,0,2.6-1.7,2.6-3.8c0-2.1-1.1-3.9-2.5-3.9s-2.6,1.7-2.6,3.8
		S264.7,111.1,266.1,111.2z"/>
	<path class="st0" d="M289.6,101.8c0.1,0.8,0.5,1,1.1,0.5c1.8-1.3,3.4-1.2,4.7,0.4c0.2,0.2,0.4,0.2,0.6,0.1c1-0.5,2.1-1.1,3.2-1.2
		c2.7-0.3,3.9,2.1,3.8,4.4c-0.1,2.1-0.1,4.1,0,6c0,0.4-0.2,0.7-0.6,0.7l-1.5,0.2c-0.4,0-0.7-0.2-0.7-0.6c0,0,0,0,0-0.1v-6.7
		c0-1.1-0.6-1.7-1.7-1.7h-0.6c-1.1,0-1.7,0.6-1.7,1.7v6.7c0,0.4-0.3,0.7-0.7,0.7h-0.1l-1.6-0.3c-0.4-0.1-0.6-0.3-0.5-0.7l0.1-6.4
		c0-1.5-0.7-2.1-2.1-1.8l-0.6,0.1c-0.6,0.1-0.9,0.5-0.9,1.1v7.4c0,0.3-0.2,0.5-0.5,0.4l-2.2-0.2c-0.2,0-0.3-0.1-0.3-0.4l0.1-8.6
		c0-0.7,0.4-1.4,1-1.7C288.9,101.2,289.5,101.2,289.6,101.8z"/>
	<path class="st0" d="M309.3,108.1c0.6,1.9,2.7,3,4.6,2.2c0.5-0.2,1-0.4,1.4-0.5c0.5-0.2,0.6,0,0.5,0.4l-0.4,1.5
		c-0.1,0.4-0.3,0.6-0.7,0.7c-4,1.4-8-0.2-8.2-4.8c-0.1-2.7,1.1-4.6,3.7-5.8c2.8-1.2,6.4,0.8,6.4,4c0,0.7-0.5,1.2-1.2,1.3l-5.5,0.2
		C309.3,107.3,309.1,107.5,309.3,108.1z M312.8,105.4c0.9-0.1,1.1-0.5,0.7-1.3c-0.3-0.5-0.8-0.8-1.4-0.8c-1.1,0.1-2,0.6-2.5,1.6
		c-0.2,0.5-0.1,0.7,0.4,0.6L312.8,105.4z"/>
	<path class="st0" d="M323.1,105.3l0.1,6.6c0,0.5-0.2,0.7-0.7,0.8h-1.6c-0.5,0-0.8-0.3-0.8-0.8c0.1-2.7,0.1-5.5,0-8.4
		c0-1.3,0.6-1.9,2-2c0.4,0,0.8,0.1,1,0.4l0.2,0.2c0.2,0.3,0.7,0.3,1,0.1c3-2.2,5.9,0.3,5.7,3.5c-0.1,2.2-0.1,4.2,0,6
		c0,0.4-0.2,0.7-0.6,0.7l-1.5,0.2c-0.7,0.1-1.1-0.2-1.1-0.9V105c0-0.8-0.6-1.4-1.4-1.4l0,0h-0.8
		C323.6,103.7,323.1,104.3,323.1,105.3z"/>
	<path class="st0" d="M362.5,103.5c-1-0.1-1.9,0.3-2.6,1.1c-0.5,0.5-1.1,0.6-1.8,0.2c-0.1-0.1-0.2-0.2-0.2-0.3
		c-0.3-0.5-0.2-1,0.3-1.4c1.5-1.2,3.3-1.8,5.2-1.7c1.7,0.1,3,1.5,2.9,3.2l0,0L366,110c0,0.4,0.1,0.6,0.4,0.8
		c0.1,0.1,0.2,0.1,0.4,0.2c1.2,0.2,1.3,0.7,0.4,1.5c-0.8,0.7-2.1,0.8-2.9-0.1c-0.2-0.2-0.5-0.4-0.8-0.4s-0.7,0-0.9,0.2
		c-2.2,1.3-4,1-5.4-0.9c-0.5-0.8-0.5-1.8,0.2-2.5c1.3-1.3,2.9-2.1,4.7-2.3c0.4,0,0.7-0.2,0.9-0.5c0.5-0.6,0.5-1.3,0.2-2.1
		C362.9,103.7,362.7,103.6,362.5,103.5z M360.3,108.7c-0.6,0.2-1,0.9-0.8,1.5c0.1,0.3,0.4,0.6,0.7,0.7c0.6,0.2,1.3,0.3,2.2,0.1
		c0.5-0.1,0.7-0.4,0.7-0.8v-1.6c0-0.6-0.3-0.8-0.8-0.6L360.3,108.7z"/>
	<path class="st0" d="M129.3,104.4c-0.1,0.7,0.2,1.1,0.8,1.2c1.7,0.5,4.5,1.4,4.7,3.5c0.4,4.1-5.2,4.2-7.9,3.3
		c-0.6-0.2-0.8-0.6-0.6-1.2l0.1-0.3c0.2-0.6,0.9-0.9,1.5-0.7c0.1,0,0.2,0.1,0.3,0.2c0.8,0.6,1.6,0.8,2.5,0.6c0.8-0.2,1.1-0.7,1-1.5
		c-0.1-0.4-0.3-0.6-0.6-0.7c-1.4-0.5-2.8-0.6-3.9-1.7c-1.3-1.4-1.3-2.7-0.1-4c1.5-1.6,3.8-2,6.7-1.2c0.8,0.2,1,0.7,0.7,1.5
		c0,0.1-0.1,0.1-0.1,0.2c-0.3,0.7-0.8,0.8-1.4,0.5c-1-0.5-2-0.6-2.9-0.4C129.6,103.8,129.4,104,129.3,104.4z"/>
	<path class="st0" d="M192.2,108.1c0.2,0.4,0.4,0.4,0.5-0.1l1.7-5.6c0.1-0.4,0.4-0.6,0.8-0.6l1.5-0.1c0.3,0,0.5,0.1,0.3,0.4
		c-2,5.8-3.9,10.3-5.6,13.6c-0.6,1.2-1.6,1.9-3.1,2c-0.4,0-0.8-0.2-0.9-0.6l-0.5-1.9c-0.1-0.4,0-0.6,0.4-0.6h1.8
		c0.8,0,1.4-0.7,1.4-1.5c0-0.2,0-0.3-0.1-0.5l-3.6-9.8c-0.4-1,0-1.3,1.1-1.1c0.1,0,0.2,0,0.3,0c1.2-0.1,1.9,0.4,2.1,1.6
		C191,105.1,191.5,106.7,192.2,108.1z"/>
	<path class="st0" d="M208.2,108.1c0.5,1.5,2.5,3,4.2,2.3c0.5-0.2,1.1-0.4,1.8-0.6c0.4-0.1,0.6,0.1,0.4,0.5l-0.4,1.4
		c-0.1,0.4-0.3,0.6-0.7,0.8c-3.1,1-7.2,0.3-7.9-3.4c-0.7-3.8,0.4-6.2,3.4-7.2c3.1-1.1,5.2-0.1,6.3,3.1c0.5,1.4,0,2.1-1.5,2.1
		l-4.9,0.1C208.2,107.2,208,107.5,208.2,108.1z M208.8,105.7l3.6-0.5c0.1,0,0.2-0.1,0.2-0.2l0,0v-0.1c-0.1-1-1.1-1.7-2.1-1.6l0,0
		h-0.2c-1,0.1-1.8,1.1-1.6,2l0,0v0.1C208.6,105.6,208.7,105.7,208.8,105.7L208.8,105.7z"/>
	<path class="st0" d="M279,107.9c0.1-0.1,0.2-0.3,0.4-0.3c0.2-0.1,0.3-0.2,0.4-0.5c0.4-1.8,1-3.5,1.8-5.1c0.1-0.2,0.2-0.3,0.4-0.3
		l1.8,0.1c0.1,0,0.1,0,0.1,0.1c-1.3,4.3-3,8.4-5,12.4c-0.4,0.9-1,1.7-1.7,2.5c-0.2,0.2-0.5,0.4-0.8,0.5c-2,0.5-2.9-0.2-2.8-2.2
		c0-0.4,0.3-0.6,0.7-0.6h1.5c1.6,0,2.1-0.7,1.6-2.2l-3.8-9.9c-0.1-0.2,0-0.5,0.3-0.6h0.1l2.2-0.1c0.3,0,0.6,0.2,0.6,0.5l1.5,5.6
		C278.6,108.3,278.8,108.3,279,107.9z"/>
	<path class="st0" d="M381,108c0.7-1.2,1.2-2.7,1.5-4.2s1.2-2.8,3-1.9c0.3,0.1,0.4,0.4,0.2,0.7l0,0c-1.5,2.8-2.7,5.8-3.7,9
		c-0.3,1-1.3,1.5-2.3,1.2c-0.5-0.2-1-0.6-1.2-1.1c-0.3-0.7-0.4-1.5-0.5-2.3c-0.1-1.3-0.5-1.4-1.2-0.3c-0.5,0.7-0.9,1.6-1.2,2.4
		c-0.3,0.8-1,1.3-1.9,1.3c-0.8,0-1.2-0.4-1.1-1.3c0-0.3,0-0.7-0.1-1l-3.1-8.1c-0.2-0.4,0-0.7,0.5-0.6h2.1c0.4,0,0.7,0.3,0.8,0.6
		l1.4,5.1c0.3,1.3,0.8,1.3,1.4,0.1l1.2-2.4c0.1-0.2,0.1-0.5-0.1-0.7c-0.6-0.6-0.9-1.4-1-2.2c-0.1-0.4,0.1-0.6,0.6-0.6h1.9
		c0.4,0,0.6,0.2,0.7,0.6l1.4,5.6C380.4,108.5,380.7,108.6,381,108z"/>
</g>
</svg>
