<svg xmlns="http://www.w3.org/2000/svg" data-name="Layer 1" viewBox="0 0 100 125" x="0px" y="0px"><title>Artboard 16</title><path d="M87.12,10.51H56.18a2,2,0,0,0-2,2v8a2,2,0,0,0,2,2H68.64l-26,25.08a2,2,0,0,0,0,2.85l5.65,5.66a2,2,0,0,0,2.81,0L77.13,31V43a2,2,0,0,0,2,2h8a2,2,0,0,0,2-2V12.51A2,2,0,0,0,87.12,10.51Z"/><path d="M87.13,55.51h-8a1.94,1.94,0,0,0-2,1.89V77.59H22.05V22.47H42.23a1.94,1.94,0,0,0,1.89-2v-8a1.94,1.94,0,0,0-1.89-2H12a1.8,1.8,0,0,0-1.26.52l-.06.05-.05.06a1.8,1.8,0,0,0-.52,1.26V87.66a1.84,1.84,0,0,0,.52,1.26l.05.06.06,0a1.8,1.8,0,0,0,1.26.52H87.23A1.84,1.84,0,0,0,88.5,89l0,0,.06-.06a1.83,1.83,0,0,0,.51-1.26V57.4A1.94,1.94,0,0,0,87.13,55.51Z"/><text x="0" y="115" fill="#000000" font-size="5px" font-weight="bold" font-family="'Helvetica Neue', Helvetica, Arial-Unicode, Arial, Sans-serif">Created by Mike Rowe</text><text x="0" y="120" fill="#000000" font-size="5px" font-weight="bold" font-family="'Helvetica Neue', Helvetica, Arial-Unicode, Arial, Sans-serif">from the Noun Project</text></svg>